G04 #@! TF.GenerationSoftware,KiCad,Pcbnew,5.1.4+dfsg1-1*
G04 #@! TF.CreationDate,2019-11-28T07:22:53-08:00*
G04 #@! TF.ProjectId,xmas-led-002,786d6173-2d6c-4656-942d-3030322e6b69,v1_00*
G04 #@! TF.SameCoordinates,PX6cd5f04PY3385f10*
G04 #@! TF.FileFunction,Soldermask,Top*
G04 #@! TF.FilePolarity,Negative*
%FSLAX46Y46*%
G04 Gerber Fmt 4.6, Leading zero omitted, Abs format (unit mm)*
G04 Created by KiCad (PCBNEW 5.1.4+dfsg1-1) date 2019-11-28 07:22:53*
%MOMM*%
%LPD*%
G04 APERTURE LIST*
%ADD10C,36.000000*%
%ADD11C,0.010000*%
%ADD12C,1.300000*%
%ADD13C,2.400000*%
%ADD14R,2.400000X2.400000*%
G04 APERTURE END LIST*
D10*
X53027500Y-45974000D02*
G75*
G03X53027500Y-45974000I-17150000J0D01*
G01*
D11*
G36*
X35167630Y-9088647D02*
G01*
X35210750Y-9100128D01*
X35259994Y-9118698D01*
X35285896Y-9140676D01*
X35297109Y-9179415D01*
X35301854Y-9240677D01*
X35308291Y-9352938D01*
X35238354Y-9315519D01*
X35159210Y-9289051D01*
X35046798Y-9277852D01*
X35016587Y-9277341D01*
X34904383Y-9284225D01*
X34822019Y-9310085D01*
X34759088Y-9360779D01*
X34705180Y-9442165D01*
X34697459Y-9456932D01*
X34661810Y-9559338D01*
X34648152Y-9674965D01*
X34654954Y-9793261D01*
X34680689Y-9903679D01*
X34723828Y-9995667D01*
X34782842Y-10058677D01*
X34784837Y-10060006D01*
X34859733Y-10092030D01*
X34952730Y-10109324D01*
X35041073Y-10108243D01*
X35061305Y-10104295D01*
X35088954Y-10094976D01*
X35105129Y-10077803D01*
X35112899Y-10043047D01*
X35115329Y-9980977D01*
X35115500Y-9932347D01*
X35115500Y-9774000D01*
X34882667Y-9774000D01*
X34882667Y-9604667D01*
X35306000Y-9604667D01*
X35306000Y-10234088D01*
X35182903Y-10268627D01*
X35063387Y-10292523D01*
X34941538Y-10300528D01*
X34834275Y-10291995D01*
X34797863Y-10283390D01*
X34665723Y-10224432D01*
X34563812Y-10136812D01*
X34491747Y-10019914D01*
X34449146Y-9873122D01*
X34435614Y-9699917D01*
X34449326Y-9526588D01*
X34490952Y-9383183D01*
X34562064Y-9266485D01*
X34664237Y-9173277D01*
X34706287Y-9146391D01*
X34803514Y-9106825D01*
X34923937Y-9082992D01*
X35050870Y-9076423D01*
X35167630Y-9088647D01*
X35167630Y-9088647D01*
G37*
X35167630Y-9088647D02*
X35210750Y-9100128D01*
X35259994Y-9118698D01*
X35285896Y-9140676D01*
X35297109Y-9179415D01*
X35301854Y-9240677D01*
X35308291Y-9352938D01*
X35238354Y-9315519D01*
X35159210Y-9289051D01*
X35046798Y-9277852D01*
X35016587Y-9277341D01*
X34904383Y-9284225D01*
X34822019Y-9310085D01*
X34759088Y-9360779D01*
X34705180Y-9442165D01*
X34697459Y-9456932D01*
X34661810Y-9559338D01*
X34648152Y-9674965D01*
X34654954Y-9793261D01*
X34680689Y-9903679D01*
X34723828Y-9995667D01*
X34782842Y-10058677D01*
X34784837Y-10060006D01*
X34859733Y-10092030D01*
X34952730Y-10109324D01*
X35041073Y-10108243D01*
X35061305Y-10104295D01*
X35088954Y-10094976D01*
X35105129Y-10077803D01*
X35112899Y-10043047D01*
X35115329Y-9980977D01*
X35115500Y-9932347D01*
X35115500Y-9774000D01*
X34882667Y-9774000D01*
X34882667Y-9604667D01*
X35306000Y-9604667D01*
X35306000Y-10234088D01*
X35182903Y-10268627D01*
X35063387Y-10292523D01*
X34941538Y-10300528D01*
X34834275Y-10291995D01*
X34797863Y-10283390D01*
X34665723Y-10224432D01*
X34563812Y-10136812D01*
X34491747Y-10019914D01*
X34449146Y-9873122D01*
X34435614Y-9699917D01*
X34449326Y-9526588D01*
X34490952Y-9383183D01*
X34562064Y-9266485D01*
X34664237Y-9173277D01*
X34706287Y-9146391D01*
X34803514Y-9106825D01*
X34923937Y-9082992D01*
X35050870Y-9076423D01*
X35167630Y-9088647D01*
G36*
X36032205Y-9343511D02*
G01*
X36184417Y-9361250D01*
X36197157Y-9558362D01*
X36116704Y-9539686D01*
X36028946Y-9525775D01*
X35936196Y-9521248D01*
X35853383Y-9526004D01*
X35795439Y-9539939D01*
X35791442Y-9541911D01*
X35757190Y-9579750D01*
X35754047Y-9628315D01*
X35776959Y-9663660D01*
X35809378Y-9680705D01*
X35869658Y-9704908D01*
X35945125Y-9731206D01*
X35949865Y-9732742D01*
X36056593Y-9775667D01*
X36144760Y-9827353D01*
X36172115Y-9849447D01*
X36219827Y-9899033D01*
X36242001Y-9944936D01*
X36247870Y-10007619D01*
X36247917Y-10017417D01*
X36243567Y-10082772D01*
X36224460Y-10129218D01*
X36181515Y-10176644D01*
X36170540Y-10186829D01*
X36105653Y-10235236D01*
X36034916Y-10272300D01*
X36011790Y-10280335D01*
X35929994Y-10294034D01*
X35823799Y-10299544D01*
X35710373Y-10296688D01*
X35606885Y-10285293D01*
X35602334Y-10284505D01*
X35557843Y-10274045D01*
X35535063Y-10254898D01*
X35525320Y-10214550D01*
X35521686Y-10168122D01*
X35519404Y-10107218D01*
X35524918Y-10079609D01*
X35541423Y-10076510D01*
X35553436Y-10080832D01*
X35599590Y-10091675D01*
X35673978Y-10100818D01*
X35762508Y-10107445D01*
X35851090Y-10110740D01*
X35925632Y-10109887D01*
X35969040Y-10104906D01*
X36019915Y-10077478D01*
X36036747Y-10035603D01*
X36015956Y-9989670D01*
X36010616Y-9984239D01*
X35972062Y-9959929D01*
X35906654Y-9930186D01*
X35828224Y-9901266D01*
X35824584Y-9900076D01*
X35697038Y-9848063D01*
X35608643Y-9786519D01*
X35556794Y-9712884D01*
X35538886Y-9624593D01*
X35538834Y-9618991D01*
X35557446Y-9519340D01*
X35611077Y-9439512D01*
X35696416Y-9381354D01*
X35810155Y-9346713D01*
X35948984Y-9337439D01*
X36032205Y-9343511D01*
X36032205Y-9343511D01*
G37*
X36032205Y-9343511D02*
X36184417Y-9361250D01*
X36197157Y-9558362D01*
X36116704Y-9539686D01*
X36028946Y-9525775D01*
X35936196Y-9521248D01*
X35853383Y-9526004D01*
X35795439Y-9539939D01*
X35791442Y-9541911D01*
X35757190Y-9579750D01*
X35754047Y-9628315D01*
X35776959Y-9663660D01*
X35809378Y-9680705D01*
X35869658Y-9704908D01*
X35945125Y-9731206D01*
X35949865Y-9732742D01*
X36056593Y-9775667D01*
X36144760Y-9827353D01*
X36172115Y-9849447D01*
X36219827Y-9899033D01*
X36242001Y-9944936D01*
X36247870Y-10007619D01*
X36247917Y-10017417D01*
X36243567Y-10082772D01*
X36224460Y-10129218D01*
X36181515Y-10176644D01*
X36170540Y-10186829D01*
X36105653Y-10235236D01*
X36034916Y-10272300D01*
X36011790Y-10280335D01*
X35929994Y-10294034D01*
X35823799Y-10299544D01*
X35710373Y-10296688D01*
X35606885Y-10285293D01*
X35602334Y-10284505D01*
X35557843Y-10274045D01*
X35535063Y-10254898D01*
X35525320Y-10214550D01*
X35521686Y-10168122D01*
X35519404Y-10107218D01*
X35524918Y-10079609D01*
X35541423Y-10076510D01*
X35553436Y-10080832D01*
X35599590Y-10091675D01*
X35673978Y-10100818D01*
X35762508Y-10107445D01*
X35851090Y-10110740D01*
X35925632Y-10109887D01*
X35969040Y-10104906D01*
X36019915Y-10077478D01*
X36036747Y-10035603D01*
X36015956Y-9989670D01*
X36010616Y-9984239D01*
X35972062Y-9959929D01*
X35906654Y-9930186D01*
X35828224Y-9901266D01*
X35824584Y-9900076D01*
X35697038Y-9848063D01*
X35608643Y-9786519D01*
X35556794Y-9712884D01*
X35538886Y-9624593D01*
X35538834Y-9618991D01*
X35557446Y-9519340D01*
X35611077Y-9439512D01*
X35696416Y-9381354D01*
X35810155Y-9346713D01*
X35948984Y-9337439D01*
X36032205Y-9343511D01*
G36*
X36676542Y-9096785D02*
G01*
X36843026Y-9102584D01*
X36974700Y-9121461D01*
X37077744Y-9155919D01*
X37158338Y-9208465D01*
X37222665Y-9281604D01*
X37252689Y-9330319D01*
X37279165Y-9385772D01*
X37296348Y-9445054D01*
X37306816Y-9520885D01*
X37313150Y-9625987D01*
X37313277Y-9629082D01*
X37312652Y-9784074D01*
X37295151Y-9907190D01*
X37258526Y-10006282D01*
X37200530Y-10089200D01*
X37173553Y-10117018D01*
X37104810Y-10177937D01*
X37040242Y-10220726D01*
X36969539Y-10248877D01*
X36882387Y-10265883D01*
X36768476Y-10275234D01*
X36697709Y-10278150D01*
X36449000Y-10286459D01*
X36449000Y-10118546D01*
X36639500Y-10118546D01*
X36769741Y-10106736D01*
X36863589Y-10091341D01*
X36935408Y-10066038D01*
X36953641Y-10054864D01*
X37014114Y-10004517D01*
X37054618Y-9953836D01*
X37078976Y-9892694D01*
X37091012Y-9810964D01*
X37094549Y-9698520D01*
X37094584Y-9681558D01*
X37088393Y-9541093D01*
X37067135Y-9436284D01*
X37026773Y-9361921D01*
X36963277Y-9312791D01*
X36872612Y-9283681D01*
X36777078Y-9271247D01*
X36639500Y-9260204D01*
X36639500Y-10118546D01*
X36449000Y-10118546D01*
X36449000Y-9096667D01*
X36676542Y-9096785D01*
X36676542Y-9096785D01*
G37*
X36676542Y-9096785D02*
X36843026Y-9102584D01*
X36974700Y-9121461D01*
X37077744Y-9155919D01*
X37158338Y-9208465D01*
X37222665Y-9281604D01*
X37252689Y-9330319D01*
X37279165Y-9385772D01*
X37296348Y-9445054D01*
X37306816Y-9520885D01*
X37313150Y-9625987D01*
X37313277Y-9629082D01*
X37312652Y-9784074D01*
X37295151Y-9907190D01*
X37258526Y-10006282D01*
X37200530Y-10089200D01*
X37173553Y-10117018D01*
X37104810Y-10177937D01*
X37040242Y-10220726D01*
X36969539Y-10248877D01*
X36882387Y-10265883D01*
X36768476Y-10275234D01*
X36697709Y-10278150D01*
X36449000Y-10286459D01*
X36449000Y-10118546D01*
X36639500Y-10118546D01*
X36769741Y-10106736D01*
X36863589Y-10091341D01*
X36935408Y-10066038D01*
X36953641Y-10054864D01*
X37014114Y-10004517D01*
X37054618Y-9953836D01*
X37078976Y-9892694D01*
X37091012Y-9810964D01*
X37094549Y-9698520D01*
X37094584Y-9681558D01*
X37088393Y-9541093D01*
X37067135Y-9436284D01*
X37026773Y-9361921D01*
X36963277Y-9312791D01*
X36872612Y-9283681D01*
X36777078Y-9271247D01*
X36639500Y-9260204D01*
X36639500Y-10118546D01*
X36449000Y-10118546D01*
X36449000Y-9096667D01*
X36676542Y-9096785D01*
D12*
X57677500Y-42354000D03*
X57677500Y-35554000D03*
D13*
X42077500Y-18694000D03*
D14*
X29377500Y-18694000D03*
M02*
