G04 #@! TF.GenerationSoftware,KiCad,Pcbnew,5.1.4+dfsg1-1*
G04 #@! TF.CreationDate,2019-11-28T07:22:53-08:00*
G04 #@! TF.ProjectId,xmas-led-002,786d6173-2d6c-4656-942d-3030322e6b69,v1_00*
G04 #@! TF.SameCoordinates,PX6cd5f04PY3385f10*
G04 #@! TF.FileFunction,Copper,L1,Top*
G04 #@! TF.FilePolarity,Positive*
%FSLAX46Y46*%
G04 Gerber Fmt 4.6, Leading zero omitted, Abs format (unit mm)*
G04 Created by KiCad (PCBNEW 5.1.4+dfsg1-1) date 2019-11-28 07:22:53*
%MOMM*%
%LPD*%
G04 APERTURE LIST*
%ADD10C,2.000000*%
%ADD11C,0.010000*%
%ADD12C,0.200000*%
%ADD13C,0.400000*%
%ADD14C,2.000000*%
%ADD15R,2.000000X2.000000*%
G04 APERTURE END LIST*
D10*
X69677500Y-45973833D02*
G75*
G03X69677500Y-45973833I-33800000J0D01*
G01*
D11*
G36*
X35147914Y-9111601D02*
G01*
X35200167Y-9126495D01*
X35251082Y-9150870D01*
X35273878Y-9185795D01*
X35280820Y-9230718D01*
X35284233Y-9281805D01*
X35276585Y-9302905D01*
X35248248Y-9299039D01*
X35192848Y-9276583D01*
X35084416Y-9249130D01*
X34966187Y-9247810D01*
X34856013Y-9271866D01*
X34810171Y-9292806D01*
X34725499Y-9359807D01*
X34668333Y-9450882D01*
X34636776Y-9570261D01*
X34628667Y-9696563D01*
X34641688Y-9850285D01*
X34680814Y-9970724D01*
X34746133Y-10057993D01*
X34837736Y-10112206D01*
X34955714Y-10133477D01*
X34975342Y-10133833D01*
X35049909Y-10132133D01*
X35097020Y-10121764D01*
X35122976Y-10094825D01*
X35134079Y-10043416D01*
X35136628Y-9959636D01*
X35136667Y-9931542D01*
X35136667Y-9754946D01*
X35014959Y-9748598D01*
X34946144Y-9743599D01*
X34908904Y-9734199D01*
X34892492Y-9714996D01*
X34886553Y-9684042D01*
X34879855Y-9625833D01*
X35284834Y-9625833D01*
X35284834Y-10214359D01*
X35216042Y-10238830D01*
X35131086Y-10259276D01*
X35026677Y-10270713D01*
X34919958Y-10272477D01*
X34828077Y-10263902D01*
X34792253Y-10255267D01*
X34668919Y-10196253D01*
X34575158Y-10109079D01*
X34510053Y-9992338D01*
X34472692Y-9844623D01*
X34463648Y-9749879D01*
X34468650Y-9571510D01*
X34503762Y-9422132D01*
X34569746Y-9300230D01*
X34667358Y-9204291D01*
X34766096Y-9146436D01*
X34884559Y-9109896D01*
X35018359Y-9097984D01*
X35147914Y-9111601D01*
X35147914Y-9111601D01*
G37*
X35147914Y-9111601D02*
X35200167Y-9126495D01*
X35251082Y-9150870D01*
X35273878Y-9185795D01*
X35280820Y-9230718D01*
X35284233Y-9281805D01*
X35276585Y-9302905D01*
X35248248Y-9299039D01*
X35192848Y-9276583D01*
X35084416Y-9249130D01*
X34966187Y-9247810D01*
X34856013Y-9271866D01*
X34810171Y-9292806D01*
X34725499Y-9359807D01*
X34668333Y-9450882D01*
X34636776Y-9570261D01*
X34628667Y-9696563D01*
X34641688Y-9850285D01*
X34680814Y-9970724D01*
X34746133Y-10057993D01*
X34837736Y-10112206D01*
X34955714Y-10133477D01*
X34975342Y-10133833D01*
X35049909Y-10132133D01*
X35097020Y-10121764D01*
X35122976Y-10094825D01*
X35134079Y-10043416D01*
X35136628Y-9959636D01*
X35136667Y-9931542D01*
X35136667Y-9754946D01*
X35014959Y-9748598D01*
X34946144Y-9743599D01*
X34908904Y-9734199D01*
X34892492Y-9714996D01*
X34886553Y-9684042D01*
X34879855Y-9625833D01*
X35284834Y-9625833D01*
X35284834Y-10214359D01*
X35216042Y-10238830D01*
X35131086Y-10259276D01*
X35026677Y-10270713D01*
X34919958Y-10272477D01*
X34828077Y-10263902D01*
X34792253Y-10255267D01*
X34668919Y-10196253D01*
X34575158Y-10109079D01*
X34510053Y-9992338D01*
X34472692Y-9844623D01*
X34463648Y-9749879D01*
X34468650Y-9571510D01*
X34503762Y-9422132D01*
X34569746Y-9300230D01*
X34667358Y-9204291D01*
X34766096Y-9146436D01*
X34884559Y-9109896D01*
X35018359Y-9097984D01*
X35147914Y-9111601D01*
G36*
X36040077Y-9365362D02*
G01*
X36109151Y-9376335D01*
X36146726Y-9389240D01*
X36163363Y-9410819D01*
X36169622Y-9447819D01*
X36169651Y-9448117D01*
X36176052Y-9513784D01*
X36017744Y-9503625D01*
X35901054Y-9499711D01*
X35819047Y-9506362D01*
X35765087Y-9524932D01*
X35732538Y-9556779D01*
X35729200Y-9562583D01*
X35718092Y-9615472D01*
X35745787Y-9662882D01*
X35813644Y-9706410D01*
X35872122Y-9730574D01*
X35998486Y-9778376D01*
X36089826Y-9818812D01*
X36151686Y-9856617D01*
X36189611Y-9896522D01*
X36209146Y-9943260D01*
X36215834Y-10001561D01*
X36216167Y-10024217D01*
X36209561Y-10093458D01*
X36183608Y-10143754D01*
X36153285Y-10175589D01*
X36070701Y-10228029D01*
X35959345Y-10263442D01*
X35829921Y-10280087D01*
X35693136Y-10276220D01*
X35612917Y-10263528D01*
X35567136Y-10246303D01*
X35547223Y-10210937D01*
X35542716Y-10180450D01*
X35536015Y-10110834D01*
X35648549Y-10127625D01*
X35799854Y-10143325D01*
X35915964Y-10140191D01*
X35995820Y-10118321D01*
X36029034Y-10092598D01*
X36057253Y-10051874D01*
X36068000Y-10025655D01*
X36048086Y-9986403D01*
X35992186Y-9943922D01*
X35906059Y-9901998D01*
X35846358Y-9880035D01*
X35761588Y-9846019D01*
X35682421Y-9804549D01*
X35632104Y-9769423D01*
X35584923Y-9720880D01*
X35564188Y-9673003D01*
X35560000Y-9614685D01*
X35579058Y-9524150D01*
X35633176Y-9450848D01*
X35717773Y-9397158D01*
X35828270Y-9365460D01*
X35960083Y-9358132D01*
X36040077Y-9365362D01*
X36040077Y-9365362D01*
G37*
X36040077Y-9365362D02*
X36109151Y-9376335D01*
X36146726Y-9389240D01*
X36163363Y-9410819D01*
X36169622Y-9447819D01*
X36169651Y-9448117D01*
X36176052Y-9513784D01*
X36017744Y-9503625D01*
X35901054Y-9499711D01*
X35819047Y-9506362D01*
X35765087Y-9524932D01*
X35732538Y-9556779D01*
X35729200Y-9562583D01*
X35718092Y-9615472D01*
X35745787Y-9662882D01*
X35813644Y-9706410D01*
X35872122Y-9730574D01*
X35998486Y-9778376D01*
X36089826Y-9818812D01*
X36151686Y-9856617D01*
X36189611Y-9896522D01*
X36209146Y-9943260D01*
X36215834Y-10001561D01*
X36216167Y-10024217D01*
X36209561Y-10093458D01*
X36183608Y-10143754D01*
X36153285Y-10175589D01*
X36070701Y-10228029D01*
X35959345Y-10263442D01*
X35829921Y-10280087D01*
X35693136Y-10276220D01*
X35612917Y-10263528D01*
X35567136Y-10246303D01*
X35547223Y-10210937D01*
X35542716Y-10180450D01*
X35536015Y-10110834D01*
X35648549Y-10127625D01*
X35799854Y-10143325D01*
X35915964Y-10140191D01*
X35995820Y-10118321D01*
X36029034Y-10092598D01*
X36057253Y-10051874D01*
X36068000Y-10025655D01*
X36048086Y-9986403D01*
X35992186Y-9943922D01*
X35906059Y-9901998D01*
X35846358Y-9880035D01*
X35761588Y-9846019D01*
X35682421Y-9804549D01*
X35632104Y-9769423D01*
X35584923Y-9720880D01*
X35564188Y-9673003D01*
X35560000Y-9614685D01*
X35579058Y-9524150D01*
X35633176Y-9450848D01*
X35717773Y-9397158D01*
X35828270Y-9365460D01*
X35960083Y-9358132D01*
X36040077Y-9365362D01*
G36*
X36687125Y-9117951D02*
G01*
X36826394Y-9121176D01*
X36932852Y-9132258D01*
X37015664Y-9153565D01*
X37083996Y-9187465D01*
X37147012Y-9236328D01*
X37147737Y-9236982D01*
X37217537Y-9316680D01*
X37263554Y-9411702D01*
X37287958Y-9529312D01*
X37292919Y-9676772D01*
X37291431Y-9717983D01*
X37271580Y-9880816D01*
X37227394Y-10011949D01*
X37156648Y-10113287D01*
X37057119Y-10186731D01*
X36926583Y-10234187D01*
X36762816Y-10257556D01*
X36657303Y-10260833D01*
X36470167Y-10260833D01*
X36470167Y-10112667D01*
X36639500Y-10112667D01*
X36761539Y-10112667D01*
X36876472Y-10101347D01*
X36956803Y-10073395D01*
X37038078Y-10007792D01*
X37092728Y-9911724D01*
X37121368Y-9783786D01*
X37126334Y-9686432D01*
X37117320Y-9537941D01*
X37088350Y-9424485D01*
X37036533Y-9342358D01*
X36958976Y-9287852D01*
X36852788Y-9257262D01*
X36785505Y-9249592D01*
X36639500Y-9239145D01*
X36639500Y-10112667D01*
X36470167Y-10112667D01*
X36470167Y-9117833D01*
X36687125Y-9117951D01*
X36687125Y-9117951D01*
G37*
X36687125Y-9117951D02*
X36826394Y-9121176D01*
X36932852Y-9132258D01*
X37015664Y-9153565D01*
X37083996Y-9187465D01*
X37147012Y-9236328D01*
X37147737Y-9236982D01*
X37217537Y-9316680D01*
X37263554Y-9411702D01*
X37287958Y-9529312D01*
X37292919Y-9676772D01*
X37291431Y-9717983D01*
X37271580Y-9880816D01*
X37227394Y-10011949D01*
X37156648Y-10113287D01*
X37057119Y-10186731D01*
X36926583Y-10234187D01*
X36762816Y-10257556D01*
X36657303Y-10260833D01*
X36470167Y-10260833D01*
X36470167Y-10112667D01*
X36639500Y-10112667D01*
X36761539Y-10112667D01*
X36876472Y-10101347D01*
X36956803Y-10073395D01*
X37038078Y-10007792D01*
X37092728Y-9911724D01*
X37121368Y-9783786D01*
X37126334Y-9686432D01*
X37117320Y-9537941D01*
X37088350Y-9424485D01*
X37036533Y-9342358D01*
X36958976Y-9287852D01*
X36852788Y-9257262D01*
X36785505Y-9249592D01*
X36639500Y-9239145D01*
X36639500Y-10112667D01*
X36470167Y-10112667D01*
X36470167Y-9117833D01*
X36687125Y-9117951D01*
D12*
X58877500Y-65174000D02*
X59312099Y-65608649D01*
X58877500Y-62049457D02*
X58193202Y-61365209D01*
X58877500Y-61256559D02*
X59312099Y-60821911D01*
X59561798Y-61365209D02*
X58877500Y-62049457D01*
X60821845Y-63547704D02*
X59887097Y-63798203D01*
X59887097Y-63798203D02*
X60137547Y-64732951D01*
X58877500Y-64381102D02*
X58193202Y-65065350D01*
X58442901Y-60821911D02*
X58877500Y-61256559D01*
X60732845Y-64788301D02*
X60573796Y-64194652D01*
X60573796Y-64194652D02*
X61167494Y-64035603D01*
X58442901Y-65608649D02*
X58877500Y-65174000D01*
X59561798Y-65065350D02*
X58877500Y-64381102D01*
X57867852Y-62632356D02*
X56933105Y-62882855D01*
X57181154Y-62235957D02*
X57022104Y-61642258D01*
X57617453Y-64732901D02*
X57867952Y-63798153D01*
X57617403Y-61697608D02*
X57867852Y-62632356D01*
X56587406Y-62394957D02*
X57181154Y-62235957D01*
X57867952Y-63798153D02*
X56933155Y-63547754D01*
X57181204Y-64194602D02*
X57022154Y-64788351D01*
X56587506Y-64035553D02*
X57181204Y-64194602D01*
X60821945Y-62882805D02*
X59887147Y-62632306D01*
X59887147Y-62632306D02*
X60137647Y-61697658D01*
X60732945Y-61642208D02*
X60573896Y-62235907D01*
X58877500Y-66312097D02*
X58877500Y-60118462D01*
X61559393Y-64763701D02*
X56195507Y-61666908D01*
X60573896Y-62235907D02*
X61167544Y-62395007D01*
X56195607Y-64763651D02*
X61559443Y-61666858D01*
X15595607Y-52963651D02*
X20959443Y-49866858D01*
X19973896Y-50435907D02*
X20567544Y-50595007D01*
X20959393Y-52963701D02*
X15595507Y-49866908D01*
X18277500Y-54512097D02*
X18277500Y-48318462D01*
X20132945Y-49842208D02*
X19973896Y-50435907D01*
X19287147Y-50832306D02*
X19537647Y-49897658D01*
X20221945Y-51082805D02*
X19287147Y-50832306D01*
X15987506Y-52235553D02*
X16581204Y-52394602D01*
X16581204Y-52394602D02*
X16422154Y-52988351D01*
X17267952Y-51998153D02*
X16333155Y-51747754D01*
X15987406Y-50594957D02*
X16581154Y-50435957D01*
X17017403Y-49897608D02*
X17267852Y-50832356D01*
X17017453Y-52932901D02*
X17267952Y-51998153D01*
X16581154Y-50435957D02*
X16422104Y-49842258D01*
X17267852Y-50832356D02*
X16333105Y-51082855D01*
X18961798Y-53265350D02*
X18277500Y-52581102D01*
X17842901Y-53808649D02*
X18277500Y-53374000D01*
X19973796Y-52394652D02*
X20567494Y-52235603D01*
X20132845Y-52988301D02*
X19973796Y-52394652D01*
X17842901Y-49021911D02*
X18277500Y-49456559D01*
X18277500Y-52581102D02*
X17593202Y-53265350D01*
X19287097Y-51998203D02*
X19537547Y-52932951D01*
X20221845Y-51747704D02*
X19287097Y-51998203D01*
X18961798Y-49565209D02*
X18277500Y-50249457D01*
X18277500Y-49456559D02*
X18712099Y-49021911D01*
X18277500Y-50249457D02*
X17593202Y-49565209D01*
X18277500Y-53374000D02*
X18712099Y-53808649D01*
X43595607Y-24163651D02*
X48959443Y-21066858D01*
X47973896Y-21635907D02*
X48567544Y-21795007D01*
X48959393Y-24163701D02*
X43595507Y-21066908D01*
X46277500Y-25712097D02*
X46277500Y-19518462D01*
X48132945Y-21042208D02*
X47973896Y-21635907D01*
X47287147Y-22032306D02*
X47537647Y-21097658D01*
X48221945Y-22282805D02*
X47287147Y-22032306D01*
X43987506Y-23435553D02*
X44581204Y-23594602D01*
X44581204Y-23594602D02*
X44422154Y-24188351D01*
X45267952Y-23198153D02*
X44333155Y-22947754D01*
X43987406Y-21794957D02*
X44581154Y-21635957D01*
X45017403Y-21097608D02*
X45267852Y-22032356D01*
X45017453Y-24132901D02*
X45267952Y-23198153D01*
X44581154Y-21635957D02*
X44422104Y-21042258D01*
X45267852Y-22032356D02*
X44333105Y-22282855D01*
X46961798Y-24465350D02*
X46277500Y-23781102D01*
X45842901Y-25008649D02*
X46277500Y-24574000D01*
X47973796Y-23594652D02*
X48567494Y-23435603D01*
X48132845Y-24188301D02*
X47973796Y-23594652D01*
X45842901Y-20221911D02*
X46277500Y-20656559D01*
X46277500Y-23781102D02*
X45593202Y-24465350D01*
X47287097Y-23198203D02*
X47537547Y-24132951D01*
X48221845Y-22947704D02*
X47287097Y-23198203D01*
X46961798Y-20765209D02*
X46277500Y-21449457D01*
X46277500Y-20656559D02*
X46712099Y-20221911D01*
X46277500Y-21449457D02*
X45593202Y-20765209D01*
X46277500Y-24574000D02*
X46712099Y-25008649D01*
X50077500Y-73174000D02*
X50512099Y-73608649D01*
X50077500Y-70049457D02*
X49393202Y-69365209D01*
X50077500Y-69256559D02*
X50512099Y-68821911D01*
X50761798Y-69365209D02*
X50077500Y-70049457D01*
X52021845Y-71547704D02*
X51087097Y-71798203D01*
X51087097Y-71798203D02*
X51337547Y-72732951D01*
X50077500Y-72381102D02*
X49393202Y-73065350D01*
X49642901Y-68821911D02*
X50077500Y-69256559D01*
X51932845Y-72788301D02*
X51773796Y-72194652D01*
X51773796Y-72194652D02*
X52367494Y-72035603D01*
X49642901Y-73608649D02*
X50077500Y-73174000D01*
X50761798Y-73065350D02*
X50077500Y-72381102D01*
X49067852Y-70632356D02*
X48133105Y-70882855D01*
X48381154Y-70235957D02*
X48222104Y-69642258D01*
X48817453Y-72732901D02*
X49067952Y-71798153D01*
X48817403Y-69697608D02*
X49067852Y-70632356D01*
X47787406Y-70394957D02*
X48381154Y-70235957D01*
X49067952Y-71798153D02*
X48133155Y-71547754D01*
X48381204Y-72194602D02*
X48222154Y-72788351D01*
X47787506Y-72035553D02*
X48381204Y-72194602D01*
X52021945Y-70882805D02*
X51087147Y-70632306D01*
X51087147Y-70632306D02*
X51337647Y-69697658D01*
X51932945Y-69642208D02*
X51773896Y-70235907D01*
X50077500Y-74312097D02*
X50077500Y-68118462D01*
X52759393Y-72763701D02*
X47395507Y-69666908D01*
X51773896Y-70235907D02*
X52367544Y-70395007D01*
X47395607Y-72763651D02*
X52759443Y-69666858D01*
X56795607Y-45163651D02*
X62159443Y-42066858D01*
X61173896Y-42635907D02*
X61767544Y-42795007D01*
X62159393Y-45163701D02*
X56795507Y-42066908D01*
X59477500Y-46712097D02*
X59477500Y-40518462D01*
X61332945Y-42042208D02*
X61173896Y-42635907D01*
X60487147Y-43032306D02*
X60737647Y-42097658D01*
X61421945Y-43282805D02*
X60487147Y-43032306D01*
X57187506Y-44435553D02*
X57781204Y-44594602D01*
X57781204Y-44594602D02*
X57622154Y-45188351D01*
X58467952Y-44198153D02*
X57533155Y-43947754D01*
X57187406Y-42794957D02*
X57781154Y-42635957D01*
X58217403Y-42097608D02*
X58467852Y-43032356D01*
X58217453Y-45132901D02*
X58467952Y-44198153D01*
X57781154Y-42635957D02*
X57622104Y-42042258D01*
X58467852Y-43032356D02*
X57533105Y-43282855D01*
X60161798Y-45465350D02*
X59477500Y-44781102D01*
X59042901Y-46008649D02*
X59477500Y-45574000D01*
X61173796Y-44594652D02*
X61767494Y-44435603D01*
X61332845Y-45188301D02*
X61173796Y-44594652D01*
X59042901Y-41221911D02*
X59477500Y-41656559D01*
X59477500Y-44781102D02*
X58793202Y-45465350D01*
X60487097Y-44198203D02*
X60737547Y-45132951D01*
X61421845Y-43947704D02*
X60487097Y-44198203D01*
X60161798Y-41765209D02*
X59477500Y-42449457D01*
X59477500Y-41656559D02*
X59912099Y-41221911D01*
X59477500Y-42449457D02*
X58793202Y-41765209D01*
X59477500Y-45574000D02*
X59912099Y-46008649D01*
X29477500Y-33174000D02*
X29912099Y-33608649D01*
X29477500Y-30049457D02*
X28793202Y-29365209D01*
X29477500Y-29256559D02*
X29912099Y-28821911D01*
X30161798Y-29365209D02*
X29477500Y-30049457D01*
X31421845Y-31547704D02*
X30487097Y-31798203D01*
X30487097Y-31798203D02*
X30737547Y-32732951D01*
X29477500Y-32381102D02*
X28793202Y-33065350D01*
X29042901Y-28821911D02*
X29477500Y-29256559D01*
X31332845Y-32788301D02*
X31173796Y-32194652D01*
X31173796Y-32194652D02*
X31767494Y-32035603D01*
X29042901Y-33608649D02*
X29477500Y-33174000D01*
X30161798Y-33065350D02*
X29477500Y-32381102D01*
X28467852Y-30632356D02*
X27533105Y-30882855D01*
X27781154Y-30235957D02*
X27622104Y-29642258D01*
X28217453Y-32732901D02*
X28467952Y-31798153D01*
X28217403Y-29697608D02*
X28467852Y-30632356D01*
X27187406Y-30394957D02*
X27781154Y-30235957D01*
X28467952Y-31798153D02*
X27533155Y-31547754D01*
X27781204Y-32194602D02*
X27622154Y-32788351D01*
X27187506Y-32035553D02*
X27781204Y-32194602D01*
X31421945Y-30882805D02*
X30487147Y-30632306D01*
X30487147Y-30632306D02*
X30737647Y-29697658D01*
X31332945Y-29642208D02*
X31173896Y-30235907D01*
X29477500Y-34312097D02*
X29477500Y-28118462D01*
X32159393Y-32763701D02*
X26795507Y-29666908D01*
X31173896Y-30235907D02*
X31767544Y-30395007D01*
X26795607Y-32763651D02*
X32159443Y-29666858D01*
X40995607Y-58563651D02*
X46359443Y-55466858D01*
X45373896Y-56035907D02*
X45967544Y-56195007D01*
X46359393Y-58563701D02*
X40995507Y-55466908D01*
X43677500Y-60112097D02*
X43677500Y-53918462D01*
X45532945Y-55442208D02*
X45373896Y-56035907D01*
X44687147Y-56432306D02*
X44937647Y-55497658D01*
X45621945Y-56682805D02*
X44687147Y-56432306D01*
X41387506Y-57835553D02*
X41981204Y-57994602D01*
X41981204Y-57994602D02*
X41822154Y-58588351D01*
X42667952Y-57598153D02*
X41733155Y-57347754D01*
X41387406Y-56194957D02*
X41981154Y-56035957D01*
X42417403Y-55497608D02*
X42667852Y-56432356D01*
X42417453Y-58532901D02*
X42667952Y-57598153D01*
X41981154Y-56035957D02*
X41822104Y-55442258D01*
X42667852Y-56432356D02*
X41733105Y-56682855D01*
X44361798Y-58865350D02*
X43677500Y-58181102D01*
X43242901Y-59408649D02*
X43677500Y-58974000D01*
X45373796Y-57994652D02*
X45967494Y-57835603D01*
X45532845Y-58588301D02*
X45373796Y-57994652D01*
X43242901Y-54621911D02*
X43677500Y-55056559D01*
X43677500Y-58181102D02*
X42993202Y-58865350D01*
X44687097Y-57598203D02*
X44937547Y-58532951D01*
X45621845Y-57347704D02*
X44687097Y-57598203D01*
X44361798Y-55165209D02*
X43677500Y-55849457D01*
X43677500Y-55056559D02*
X44112099Y-54621911D01*
X43677500Y-55849457D02*
X42993202Y-55165209D01*
X43677500Y-58974000D02*
X44112099Y-59408649D01*
X37077500Y-48174000D02*
X37512099Y-48608649D01*
X37077500Y-45049457D02*
X36393202Y-44365209D01*
X37077500Y-44256559D02*
X37512099Y-43821911D01*
X37761798Y-44365209D02*
X37077500Y-45049457D01*
X39021845Y-46547704D02*
X38087097Y-46798203D01*
X38087097Y-46798203D02*
X38337547Y-47732951D01*
X37077500Y-47381102D02*
X36393202Y-48065350D01*
X36642901Y-43821911D02*
X37077500Y-44256559D01*
X38932845Y-47788301D02*
X38773796Y-47194652D01*
X38773796Y-47194652D02*
X39367494Y-47035603D01*
X36642901Y-48608649D02*
X37077500Y-48174000D01*
X37761798Y-48065350D02*
X37077500Y-47381102D01*
X36067852Y-45632356D02*
X35133105Y-45882855D01*
X35381154Y-45235957D02*
X35222104Y-44642258D01*
X35817453Y-47732901D02*
X36067952Y-46798153D01*
X35817403Y-44697608D02*
X36067852Y-45632356D01*
X34787406Y-45394957D02*
X35381154Y-45235957D01*
X36067952Y-46798153D02*
X35133155Y-46547754D01*
X35381204Y-47194602D02*
X35222154Y-47788351D01*
X34787506Y-47035553D02*
X35381204Y-47194602D01*
X39021945Y-45882805D02*
X38087147Y-45632306D01*
X38087147Y-45632306D02*
X38337647Y-44697658D01*
X38932945Y-44642208D02*
X38773896Y-45235907D01*
X37077500Y-49312097D02*
X37077500Y-43118462D01*
X39759393Y-47763701D02*
X34395507Y-44666908D01*
X38773896Y-45235907D02*
X39367544Y-45395007D01*
X34395607Y-47763651D02*
X39759443Y-44666858D01*
X9195607Y-45363651D02*
X14559443Y-42266858D01*
X13573896Y-42835907D02*
X14167544Y-42995007D01*
X14559393Y-45363701D02*
X9195507Y-42266908D01*
X11877500Y-46912097D02*
X11877500Y-40718462D01*
X13732945Y-42242208D02*
X13573896Y-42835907D01*
X12887147Y-43232306D02*
X13137647Y-42297658D01*
X13821945Y-43482805D02*
X12887147Y-43232306D01*
X9587506Y-44635553D02*
X10181204Y-44794602D01*
X10181204Y-44794602D02*
X10022154Y-45388351D01*
X10867952Y-44398153D02*
X9933155Y-44147754D01*
X9587406Y-42994957D02*
X10181154Y-42835957D01*
X10617403Y-42297608D02*
X10867852Y-43232356D01*
X10617453Y-45332901D02*
X10867952Y-44398153D01*
X10181154Y-42835957D02*
X10022104Y-42242258D01*
X10867852Y-43232356D02*
X9933105Y-43482855D01*
X12561798Y-45665350D02*
X11877500Y-44981102D01*
X11442901Y-46208649D02*
X11877500Y-45774000D01*
X13573796Y-44794652D02*
X14167494Y-44635603D01*
X13732845Y-45388301D02*
X13573796Y-44794652D01*
X11442901Y-41421911D02*
X11877500Y-41856559D01*
X11877500Y-44981102D02*
X11193202Y-45665350D01*
X12887097Y-44398203D02*
X13137547Y-45332951D01*
X13821845Y-44147704D02*
X12887097Y-44398203D01*
X12561798Y-41965209D02*
X11877500Y-42649457D01*
X11877500Y-41856559D02*
X12312099Y-41421911D01*
X11877500Y-42649457D02*
X11193202Y-41965209D01*
X11877500Y-45774000D02*
X12312099Y-46208649D01*
X14877500Y-63174000D02*
X15312099Y-63608649D01*
X14877500Y-60049457D02*
X14193202Y-59365209D01*
X14877500Y-59256559D02*
X15312099Y-58821911D01*
X15561798Y-59365209D02*
X14877500Y-60049457D01*
X16821845Y-61547704D02*
X15887097Y-61798203D01*
X15887097Y-61798203D02*
X16137547Y-62732951D01*
X14877500Y-62381102D02*
X14193202Y-63065350D01*
X14442901Y-58821911D02*
X14877500Y-59256559D01*
X16732845Y-62788301D02*
X16573796Y-62194652D01*
X16573796Y-62194652D02*
X17167494Y-62035603D01*
X14442901Y-63608649D02*
X14877500Y-63174000D01*
X15561798Y-63065350D02*
X14877500Y-62381102D01*
X13867852Y-60632356D02*
X12933105Y-60882855D01*
X13181154Y-60235957D02*
X13022104Y-59642258D01*
X13617453Y-62732901D02*
X13867952Y-61798153D01*
X13617403Y-59697608D02*
X13867852Y-60632356D01*
X12587406Y-60394957D02*
X13181154Y-60235957D01*
X13867952Y-61798153D02*
X12933155Y-61547754D01*
X13181204Y-62194602D02*
X13022154Y-62788351D01*
X12587506Y-62035553D02*
X13181204Y-62194602D01*
X16821945Y-60882805D02*
X15887147Y-60632306D01*
X15887147Y-60632306D02*
X16137647Y-59697658D01*
X16732945Y-59642208D02*
X16573896Y-60235907D01*
X14877500Y-64312097D02*
X14877500Y-58118462D01*
X17559393Y-62763701D02*
X12195507Y-59666908D01*
X16573896Y-60235907D02*
X17167544Y-60395007D01*
X12195607Y-62763651D02*
X17559443Y-59666858D01*
D13*
X11744212Y-47134109D02*
X10302973Y-47966248D01*
X18174072Y-47966248D02*
X16732747Y-47134109D01*
X11744384Y-50014180D02*
X10302973Y-49181869D01*
X11744212Y-45469917D02*
X11744212Y-47134109D01*
X11744384Y-51678458D02*
X11744384Y-50014180D01*
X10843545Y-50534288D02*
X10843545Y-51366255D01*
X17633500Y-50534288D02*
X18354120Y-50118133D01*
X10843373Y-46614000D02*
X10843373Y-45781861D01*
X10122753Y-47030156D02*
X10843373Y-46614000D01*
X17633500Y-51366427D02*
X17633500Y-50534288D01*
X10122925Y-50118133D02*
X10843545Y-50534288D01*
X14238480Y-45694073D02*
X12797154Y-44861934D01*
X15679805Y-44861934D02*
X14238480Y-45694073D01*
X16732747Y-50014180D02*
X16732747Y-51678458D01*
X14238480Y-44653856D02*
X14959185Y-44237873D01*
X14238480Y-51454215D02*
X12797154Y-52286354D01*
X14238480Y-52494432D02*
X14959185Y-52910416D01*
X13517946Y-44237873D02*
X14238480Y-44653856D01*
X13517946Y-52910416D02*
X14238480Y-52494432D01*
X15679805Y-52286354D02*
X14238480Y-51454215D01*
X14238480Y-53899559D02*
X14238480Y-49692261D01*
X18173900Y-49182041D02*
X16732747Y-50014180D01*
X14238479Y-50595078D02*
G75*
G02X12217632Y-48574144I-53J2020794D01*
G01*
X14238480Y-43248644D02*
X14238480Y-53899559D01*
X14238479Y-46553211D02*
G75*
G02X16259499Y-48574144I-31J-2021051D01*
G01*
X12217632Y-48574144D02*
G75*
G02X14238480Y-46553211I2020849J84D01*
G01*
X14238480Y-53899559D02*
X14238480Y-43248644D01*
X16259499Y-48574144D02*
G75*
G02X14238480Y-50595078I-2020996J62D01*
G01*
X17633500Y-45781861D02*
X17633500Y-46614000D01*
X16732747Y-47134109D02*
X16732747Y-45469745D01*
X9626462Y-51236938D02*
X18850583Y-45911351D01*
X18850411Y-51236938D02*
X9626462Y-45911351D01*
X17633500Y-46614000D02*
X18354120Y-47029984D01*
D12*
X47027500Y-15044000D02*
X45702903Y-14279252D01*
X45702903Y-17338294D02*
X45702903Y-18867840D01*
X48352197Y-14279252D02*
X47027500Y-15044000D01*
X48352197Y-18867840D02*
X48352197Y-17338294D01*
X45702903Y-15808698D02*
X44378307Y-16573496D01*
X48352197Y-15808698D02*
X48352197Y-14279252D01*
X44378307Y-16573496D02*
X45702903Y-17338294D01*
X45702903Y-18867840D02*
X47027500Y-18103042D01*
X49676793Y-16573496D02*
X48352197Y-15808698D01*
X47027500Y-13476704D02*
X47027500Y-19670388D01*
X49709443Y-15025150D02*
X44345557Y-18121992D01*
X44345557Y-15025150D02*
X49709443Y-18121992D01*
X45702903Y-14279252D02*
X45702903Y-15808698D01*
X47027500Y-18103042D02*
X48352197Y-18867840D01*
X48352197Y-17338294D02*
X49676793Y-16573496D01*
X29502197Y-25068294D02*
X30826793Y-24303496D01*
X28177500Y-25833042D02*
X29502197Y-26597840D01*
X26852903Y-22009252D02*
X26852903Y-23538698D01*
X25495557Y-22755150D02*
X30859443Y-25851992D01*
X30859443Y-22755150D02*
X25495557Y-25851992D01*
X28177500Y-21206704D02*
X28177500Y-27400388D01*
X30826793Y-24303496D02*
X29502197Y-23538698D01*
X26852903Y-26597840D02*
X28177500Y-25833042D01*
X25528307Y-24303496D02*
X26852903Y-25068294D01*
X29502197Y-23538698D02*
X29502197Y-22009252D01*
X26852903Y-23538698D02*
X25528307Y-24303496D01*
X29502197Y-26597840D02*
X29502197Y-25068294D01*
X29502197Y-22009252D02*
X28177500Y-22774000D01*
X26852903Y-25068294D02*
X26852903Y-26597840D01*
X28177500Y-22774000D02*
X26852903Y-22009252D01*
D13*
X54677500Y-30594000D02*
X55124954Y-29513629D01*
X55658131Y-28003432D02*
X57168501Y-27377651D01*
X58223248Y-34139576D02*
X59303447Y-33692209D01*
X59303447Y-33692209D02*
X60383818Y-34139576D01*
X55124954Y-29513629D02*
X54677500Y-28433345D01*
X60814418Y-25867454D02*
X61440113Y-27377651D01*
X63482113Y-29513629D02*
X63929566Y-28433345D01*
X63069224Y-25747852D02*
X55537842Y-33279235D01*
X57168415Y-31649436D02*
X55658131Y-31023741D01*
X57794110Y-25867454D02*
X59304307Y-26492977D01*
X61440113Y-27377651D02*
X62950225Y-28003260D01*
X61810698Y-25478641D02*
X62258237Y-26558839D01*
X62950225Y-31023741D02*
X61440113Y-31649264D01*
X57794110Y-33159461D02*
X57168415Y-31649436D01*
X59304307Y-32534110D02*
X57794110Y-33159461D01*
X61810698Y-33548618D02*
X62258237Y-32468247D01*
X55658131Y-31023741D02*
X56283826Y-29513629D01*
X56348829Y-26558839D02*
X56796368Y-25478641D01*
X55537842Y-25747852D02*
X63069224Y-33279235D01*
X58223248Y-24887511D02*
X59303447Y-25335050D01*
X55268544Y-32020708D02*
X56348829Y-32468247D01*
X63929566Y-30594000D02*
X63482113Y-29513629D01*
X60814418Y-33159633D02*
X59304307Y-32534110D01*
X62950225Y-28003260D02*
X62324788Y-29513629D01*
X53978118Y-29513629D02*
X64629034Y-29513629D01*
X62324788Y-29513629D02*
X62950225Y-31023741D01*
X57168501Y-27377651D02*
X57794110Y-25867454D01*
X62258237Y-26558839D02*
X63338522Y-27006378D01*
X59303447Y-25335050D02*
X60383818Y-24887511D01*
X56283826Y-29513629D02*
X55658131Y-28003432D01*
X62258237Y-32468247D02*
X63338522Y-32020708D01*
X59303533Y-24188129D02*
X59303533Y-34839044D01*
X59304307Y-26492977D02*
X60814418Y-25867454D01*
X61440113Y-31649264D02*
X60814418Y-33159633D01*
X55268544Y-27006378D02*
X56348829Y-26558839D01*
X56348829Y-32468247D02*
X56796368Y-33548618D01*
X54848829Y-55368247D02*
X55296368Y-56448618D01*
X53768544Y-49906378D02*
X54848829Y-49458839D01*
X59940113Y-54549264D02*
X59314418Y-56059633D01*
X57804307Y-49392977D02*
X59314418Y-48767454D01*
X57803533Y-47088129D02*
X57803533Y-57739044D01*
X60758237Y-55368247D02*
X61838522Y-54920708D01*
X54783826Y-52413629D02*
X54158131Y-50903432D01*
X57803447Y-48235050D02*
X58883818Y-47787511D01*
X60758237Y-49458839D02*
X61838522Y-49906378D01*
X55668501Y-50277651D02*
X56294110Y-48767454D01*
X60824788Y-52413629D02*
X61450225Y-53923741D01*
X52478118Y-52413629D02*
X63129034Y-52413629D01*
X61450225Y-50903260D02*
X60824788Y-52413629D01*
X59314418Y-56059633D02*
X57804307Y-55434110D01*
X62429566Y-53494000D02*
X61982113Y-52413629D01*
X53768544Y-54920708D02*
X54848829Y-55368247D01*
X56723248Y-47787511D02*
X57803447Y-48235050D01*
X54037842Y-48647852D02*
X61569224Y-56179235D01*
X54848829Y-49458839D02*
X55296368Y-48378641D01*
X54158131Y-53923741D02*
X54783826Y-52413629D01*
X60310698Y-56448618D02*
X60758237Y-55368247D01*
X57804307Y-55434110D02*
X56294110Y-56059461D01*
X56294110Y-56059461D02*
X55668415Y-54549436D01*
X61450225Y-53923741D02*
X59940113Y-54549264D01*
X60310698Y-48378641D02*
X60758237Y-49458839D01*
X59940113Y-50277651D02*
X61450225Y-50903260D01*
X56294110Y-48767454D02*
X57804307Y-49392977D01*
X55668415Y-54549436D02*
X54158131Y-53923741D01*
X61569224Y-48647852D02*
X54037842Y-56179235D01*
X61982113Y-52413629D02*
X62429566Y-51333345D01*
X59314418Y-48767454D02*
X59940113Y-50277651D01*
X53624954Y-52413629D02*
X53177500Y-51333345D01*
X57803447Y-56592209D02*
X58883818Y-57039576D01*
X56723248Y-57039576D02*
X57803447Y-56592209D01*
X54158131Y-50903432D02*
X55668501Y-50277651D01*
X53177500Y-53494000D02*
X53624954Y-52413629D01*
X18027500Y-70644000D02*
X18474954Y-69563629D01*
X19008131Y-68053432D02*
X20518501Y-67427651D01*
X21573248Y-74189576D02*
X22653447Y-73742209D01*
X22653447Y-73742209D02*
X23733818Y-74189576D01*
X18474954Y-69563629D02*
X18027500Y-68483345D01*
X24164418Y-65917454D02*
X24790113Y-67427651D01*
X26832113Y-69563629D02*
X27279566Y-68483345D01*
X26419224Y-65797852D02*
X18887842Y-73329235D01*
X20518415Y-71699436D02*
X19008131Y-71073741D01*
X21144110Y-65917454D02*
X22654307Y-66542977D01*
X24790113Y-67427651D02*
X26300225Y-68053260D01*
X25160698Y-65528641D02*
X25608237Y-66608839D01*
X26300225Y-71073741D02*
X24790113Y-71699264D01*
X21144110Y-73209461D02*
X20518415Y-71699436D01*
X22654307Y-72584110D02*
X21144110Y-73209461D01*
X25160698Y-73598618D02*
X25608237Y-72518247D01*
X19008131Y-71073741D02*
X19633826Y-69563629D01*
X19698829Y-66608839D02*
X20146368Y-65528641D01*
X18887842Y-65797852D02*
X26419224Y-73329235D01*
X21573248Y-64937511D02*
X22653447Y-65385050D01*
X18618544Y-72070708D02*
X19698829Y-72518247D01*
X27279566Y-70644000D02*
X26832113Y-69563629D01*
X24164418Y-73209633D02*
X22654307Y-72584110D01*
X26300225Y-68053260D02*
X25674788Y-69563629D01*
X17328118Y-69563629D02*
X27979034Y-69563629D01*
X25674788Y-69563629D02*
X26300225Y-71073741D01*
X20518501Y-67427651D02*
X21144110Y-65917454D01*
X25608237Y-66608839D02*
X26688522Y-67056378D01*
X22653447Y-65385050D02*
X23733818Y-64937511D01*
X19633826Y-69563629D02*
X19008131Y-68053432D01*
X25608237Y-72518247D02*
X26688522Y-72070708D01*
X22653533Y-64238129D02*
X22653533Y-74889044D01*
X22654307Y-66542977D02*
X24164418Y-65917454D01*
X24790113Y-71699264D02*
X24164418Y-73209633D01*
X18618544Y-67056378D02*
X19698829Y-66608839D01*
X19698829Y-72518247D02*
X20146368Y-73598618D01*
X12727500Y-26844000D02*
X13174954Y-25763629D01*
X13708131Y-24253432D02*
X15218501Y-23627651D01*
X16273248Y-30389576D02*
X17353447Y-29942209D01*
X17353447Y-29942209D02*
X18433818Y-30389576D01*
X13174954Y-25763629D02*
X12727500Y-24683345D01*
X18864418Y-22117454D02*
X19490113Y-23627651D01*
X21532113Y-25763629D02*
X21979566Y-24683345D01*
X21119224Y-21997852D02*
X13587842Y-29529235D01*
X15218415Y-27899436D02*
X13708131Y-27273741D01*
X15844110Y-22117454D02*
X17354307Y-22742977D01*
X19490113Y-23627651D02*
X21000225Y-24253260D01*
X19860698Y-21728641D02*
X20308237Y-22808839D01*
X21000225Y-27273741D02*
X19490113Y-27899264D01*
X15844110Y-29409461D02*
X15218415Y-27899436D01*
X17354307Y-28784110D02*
X15844110Y-29409461D01*
X19860698Y-29798618D02*
X20308237Y-28718247D01*
X13708131Y-27273741D02*
X14333826Y-25763629D01*
X14398829Y-22808839D02*
X14846368Y-21728641D01*
X13587842Y-21997852D02*
X21119224Y-29529235D01*
X16273248Y-21137511D02*
X17353447Y-21585050D01*
X13318544Y-28270708D02*
X14398829Y-28718247D01*
X21979566Y-26844000D02*
X21532113Y-25763629D01*
X18864418Y-29409633D02*
X17354307Y-28784110D01*
X21000225Y-24253260D02*
X20374788Y-25763629D01*
X12028118Y-25763629D02*
X22679034Y-25763629D01*
X20374788Y-25763629D02*
X21000225Y-27273741D01*
X15218501Y-23627651D02*
X15844110Y-22117454D01*
X20308237Y-22808839D02*
X21388522Y-23256378D01*
X17353447Y-21585050D02*
X18433818Y-21137511D01*
X14333826Y-25763629D02*
X13708131Y-24253432D01*
X20308237Y-28718247D02*
X21388522Y-28270708D01*
X17353533Y-20438129D02*
X17353533Y-31089044D01*
X17354307Y-22742977D02*
X18864418Y-22117454D01*
X19490113Y-27899264D02*
X18864418Y-29409633D01*
X13318544Y-23256378D02*
X14398829Y-22808839D01*
X14398829Y-28718247D02*
X14846368Y-29798618D01*
X46988212Y-28194109D02*
X45546973Y-29026248D01*
X53418072Y-29026248D02*
X51976747Y-28194109D01*
X46988384Y-31074180D02*
X45546973Y-30241869D01*
X46988212Y-26529917D02*
X46988212Y-28194109D01*
X46988384Y-32738458D02*
X46988384Y-31074180D01*
X46087545Y-31594288D02*
X46087545Y-32426255D01*
X52877500Y-31594288D02*
X53598120Y-31178133D01*
X46087373Y-27674000D02*
X46087373Y-26841861D01*
X45366753Y-28090156D02*
X46087373Y-27674000D01*
X52877500Y-32426427D02*
X52877500Y-31594288D01*
X45366925Y-31178133D02*
X46087545Y-31594288D01*
X49482480Y-26754073D02*
X48041154Y-25921934D01*
X50923805Y-25921934D02*
X49482480Y-26754073D01*
X51976747Y-31074180D02*
X51976747Y-32738458D01*
X49482480Y-25713856D02*
X50203185Y-25297873D01*
X49482480Y-32514215D02*
X48041154Y-33346354D01*
X49482480Y-33554432D02*
X50203185Y-33970416D01*
X48761946Y-25297873D02*
X49482480Y-25713856D01*
X48761946Y-33970416D02*
X49482480Y-33554432D01*
X50923805Y-33346354D02*
X49482480Y-32514215D01*
X49482480Y-34959559D02*
X49482480Y-30752261D01*
X53417900Y-30242041D02*
X51976747Y-31074180D01*
X49482479Y-31655078D02*
G75*
G02X47461632Y-29634144I-53J2020794D01*
G01*
X49482480Y-24308644D02*
X49482480Y-34959559D01*
X49482479Y-27613211D02*
G75*
G02X51503499Y-29634144I-31J-2021051D01*
G01*
X47461632Y-29634144D02*
G75*
G02X49482480Y-27613211I2020849J84D01*
G01*
X49482480Y-34959559D02*
X49482480Y-24308644D01*
X51503499Y-29634144D02*
G75*
G02X49482480Y-31655078I-2020996J62D01*
G01*
X52877500Y-26841861D02*
X52877500Y-27674000D01*
X51976747Y-28194109D02*
X51976747Y-26529745D01*
X44870462Y-32296938D02*
X54094583Y-26971351D01*
X54094411Y-32296938D02*
X44870462Y-26971351D01*
X52877500Y-27674000D02*
X53598120Y-28089984D01*
X49738212Y-60764109D02*
X48296973Y-61596248D01*
X56168072Y-61596248D02*
X54726747Y-60764109D01*
X49738384Y-63644180D02*
X48296973Y-62811869D01*
X49738212Y-59099917D02*
X49738212Y-60764109D01*
X49738384Y-65308458D02*
X49738384Y-63644180D01*
X48837545Y-64164288D02*
X48837545Y-64996255D01*
X55627500Y-64164288D02*
X56348120Y-63748133D01*
X48837373Y-60244000D02*
X48837373Y-59411861D01*
X48116753Y-60660156D02*
X48837373Y-60244000D01*
X55627500Y-64996427D02*
X55627500Y-64164288D01*
X48116925Y-63748133D02*
X48837545Y-64164288D01*
X52232480Y-59324073D02*
X50791154Y-58491934D01*
X53673805Y-58491934D02*
X52232480Y-59324073D01*
X54726747Y-63644180D02*
X54726747Y-65308458D01*
X52232480Y-58283856D02*
X52953185Y-57867873D01*
X52232480Y-65084215D02*
X50791154Y-65916354D01*
X52232480Y-66124432D02*
X52953185Y-66540416D01*
X51511946Y-57867873D02*
X52232480Y-58283856D01*
X51511946Y-66540416D02*
X52232480Y-66124432D01*
X53673805Y-65916354D02*
X52232480Y-65084215D01*
X52232480Y-67529559D02*
X52232480Y-63322261D01*
X56167900Y-62812041D02*
X54726747Y-63644180D01*
X52232479Y-64225078D02*
G75*
G02X50211632Y-62204144I-53J2020794D01*
G01*
X52232480Y-56878644D02*
X52232480Y-67529559D01*
X52232479Y-60183211D02*
G75*
G02X54253499Y-62204144I-31J-2021051D01*
G01*
X50211632Y-62204144D02*
G75*
G02X52232480Y-60183211I2020849J84D01*
G01*
X52232480Y-67529559D02*
X52232480Y-56878644D01*
X54253499Y-62204144D02*
G75*
G02X52232480Y-64225078I-2020996J62D01*
G01*
X55627500Y-59411861D02*
X55627500Y-60244000D01*
X54726747Y-60764109D02*
X54726747Y-59099745D01*
X47620462Y-64866938D02*
X56844583Y-59541351D01*
X56844411Y-64866938D02*
X47620462Y-59541351D01*
X55627500Y-60244000D02*
X56348120Y-60659984D01*
X9038212Y-33064109D02*
X7596973Y-33896248D01*
X15468072Y-33896248D02*
X14026747Y-33064109D01*
X9038384Y-35944180D02*
X7596973Y-35111869D01*
X9038212Y-31399917D02*
X9038212Y-33064109D01*
X9038384Y-37608458D02*
X9038384Y-35944180D01*
X8137545Y-36464288D02*
X8137545Y-37296255D01*
X14927500Y-36464288D02*
X15648120Y-36048133D01*
X8137373Y-32544000D02*
X8137373Y-31711861D01*
X7416753Y-32960156D02*
X8137373Y-32544000D01*
X14927500Y-37296427D02*
X14927500Y-36464288D01*
X7416925Y-36048133D02*
X8137545Y-36464288D01*
X11532480Y-31624073D02*
X10091154Y-30791934D01*
X12973805Y-30791934D02*
X11532480Y-31624073D01*
X14026747Y-35944180D02*
X14026747Y-37608458D01*
X11532480Y-30583856D02*
X12253185Y-30167873D01*
X11532480Y-37384215D02*
X10091154Y-38216354D01*
X11532480Y-38424432D02*
X12253185Y-38840416D01*
X10811946Y-30167873D02*
X11532480Y-30583856D01*
X10811946Y-38840416D02*
X11532480Y-38424432D01*
X12973805Y-38216354D02*
X11532480Y-37384215D01*
X11532480Y-39829559D02*
X11532480Y-35622261D01*
X15467900Y-35112041D02*
X14026747Y-35944180D01*
X11532479Y-36525078D02*
G75*
G02X9511632Y-34504144I-53J2020794D01*
G01*
X11532480Y-29178644D02*
X11532480Y-39829559D01*
X11532479Y-32483211D02*
G75*
G02X13553499Y-34504144I-31J-2021051D01*
G01*
X9511632Y-34504144D02*
G75*
G02X11532480Y-32483211I2020849J84D01*
G01*
X11532480Y-39829559D02*
X11532480Y-29178644D01*
X13553499Y-34504144D02*
G75*
G02X11532480Y-36525078I-2020996J62D01*
G01*
X14927500Y-31711861D02*
X14927500Y-32544000D01*
X14026747Y-33064109D02*
X14026747Y-31399745D01*
X6920462Y-37166938D02*
X16144583Y-31841351D01*
X16144411Y-37166938D02*
X6920462Y-31841351D01*
X14927500Y-32544000D02*
X15648120Y-32959984D01*
X18348212Y-56786109D02*
X16906973Y-57618248D01*
X24778072Y-57618248D02*
X23336747Y-56786109D01*
X18348384Y-59666180D02*
X16906973Y-58833869D01*
X18348212Y-55121917D02*
X18348212Y-56786109D01*
X18348384Y-61330458D02*
X18348384Y-59666180D01*
X17447545Y-60186288D02*
X17447545Y-61018255D01*
X24237500Y-60186288D02*
X24958120Y-59770133D01*
X17447373Y-56266000D02*
X17447373Y-55433861D01*
X16726753Y-56682156D02*
X17447373Y-56266000D01*
X24237500Y-61018427D02*
X24237500Y-60186288D01*
X16726925Y-59770133D02*
X17447545Y-60186288D01*
X20842480Y-55346073D02*
X19401154Y-54513934D01*
X22283805Y-54513934D02*
X20842480Y-55346073D01*
X23336747Y-59666180D02*
X23336747Y-61330458D01*
X20842480Y-54305856D02*
X21563185Y-53889873D01*
X20842480Y-61106215D02*
X19401154Y-61938354D01*
X20842480Y-62146432D02*
X21563185Y-62562416D01*
X20121946Y-53889873D02*
X20842480Y-54305856D01*
X20121946Y-62562416D02*
X20842480Y-62146432D01*
X22283805Y-61938354D02*
X20842480Y-61106215D01*
X20842480Y-63551559D02*
X20842480Y-59344261D01*
X24777900Y-58834041D02*
X23336747Y-59666180D01*
X20842479Y-60247078D02*
G75*
G02X18821632Y-58226144I-53J2020794D01*
G01*
X20842480Y-52900644D02*
X20842480Y-63551559D01*
X20842479Y-56205211D02*
G75*
G02X22863499Y-58226144I-31J-2021051D01*
G01*
X18821632Y-58226144D02*
G75*
G02X20842480Y-56205211I2020849J84D01*
G01*
X20842480Y-63551559D02*
X20842480Y-52900644D01*
X22863499Y-58226144D02*
G75*
G02X20842480Y-60247078I-2020996J62D01*
G01*
X24237500Y-55433861D02*
X24237500Y-56266000D01*
X23336747Y-56786109D02*
X23336747Y-55121745D01*
X16230462Y-60888938D02*
X25454583Y-55563351D01*
X25454411Y-60888938D02*
X16230462Y-55563351D01*
X24237500Y-56266000D02*
X24958120Y-56681984D01*
X32148829Y-18748247D02*
X32596368Y-19828618D01*
X31068544Y-13286378D02*
X32148829Y-12838839D01*
X37240113Y-17929264D02*
X36614418Y-19439633D01*
X35104307Y-12772977D02*
X36614418Y-12147454D01*
X35103533Y-10468129D02*
X35103533Y-21119044D01*
X38058237Y-18748247D02*
X39138522Y-18300708D01*
X32083826Y-15793629D02*
X31458131Y-14283432D01*
X35103447Y-11615050D02*
X36183818Y-11167511D01*
X38058237Y-12838839D02*
X39138522Y-13286378D01*
X32968501Y-13657651D02*
X33594110Y-12147454D01*
X38124788Y-15793629D02*
X38750225Y-17303741D01*
X29778118Y-15793629D02*
X40429034Y-15793629D01*
X38750225Y-14283260D02*
X38124788Y-15793629D01*
X36614418Y-19439633D02*
X35104307Y-18814110D01*
X39729566Y-16874000D02*
X39282113Y-15793629D01*
X31068544Y-18300708D02*
X32148829Y-18748247D01*
X34023248Y-11167511D02*
X35103447Y-11615050D01*
X31337842Y-12027852D02*
X38869224Y-19559235D01*
X32148829Y-12838839D02*
X32596368Y-11758641D01*
X31458131Y-17303741D02*
X32083826Y-15793629D01*
X37610698Y-19828618D02*
X38058237Y-18748247D01*
X35104307Y-18814110D02*
X33594110Y-19439461D01*
X33594110Y-19439461D02*
X32968415Y-17929436D01*
X38750225Y-17303741D02*
X37240113Y-17929264D01*
X37610698Y-11758641D02*
X38058237Y-12838839D01*
X37240113Y-13657651D02*
X38750225Y-14283260D01*
X33594110Y-12147454D02*
X35104307Y-12772977D01*
X32968415Y-17929436D02*
X31458131Y-17303741D01*
X38869224Y-12027852D02*
X31337842Y-19559235D01*
X39282113Y-15793629D02*
X39729566Y-14713345D01*
X36614418Y-12147454D02*
X37240113Y-13657651D01*
X30924954Y-15793629D02*
X30477500Y-14713345D01*
X35103447Y-19972209D02*
X36183818Y-20419576D01*
X34023248Y-20419576D02*
X35103447Y-19972209D01*
X31458131Y-14283432D02*
X32968501Y-13657651D01*
X30477500Y-16874000D02*
X30924954Y-15793629D01*
X33309500Y-27833500D02*
X33756954Y-26753129D01*
X34290131Y-25242932D02*
X35800501Y-24617151D01*
X36855248Y-31379076D02*
X37935447Y-30931709D01*
X37935447Y-30931709D02*
X39015818Y-31379076D01*
X33756954Y-26753129D02*
X33309500Y-25672845D01*
X39446418Y-23106954D02*
X40072113Y-24617151D01*
X42114113Y-26753129D02*
X42561566Y-25672845D01*
X41701224Y-22987352D02*
X34169842Y-30518735D01*
X35800415Y-28888936D02*
X34290131Y-28263241D01*
X36426110Y-23106954D02*
X37936307Y-23732477D01*
X40072113Y-24617151D02*
X41582225Y-25242760D01*
X40442698Y-22718141D02*
X40890237Y-23798339D01*
X41582225Y-28263241D02*
X40072113Y-28888764D01*
X36426110Y-30398961D02*
X35800415Y-28888936D01*
X37936307Y-29773610D02*
X36426110Y-30398961D01*
X40442698Y-30788118D02*
X40890237Y-29707747D01*
X34290131Y-28263241D02*
X34915826Y-26753129D01*
X34980829Y-23798339D02*
X35428368Y-22718141D01*
X34169842Y-22987352D02*
X41701224Y-30518735D01*
X36855248Y-22127011D02*
X37935447Y-22574550D01*
X33900544Y-29260208D02*
X34980829Y-29707747D01*
X42561566Y-27833500D02*
X42114113Y-26753129D01*
X39446418Y-30399133D02*
X37936307Y-29773610D01*
X41582225Y-25242760D02*
X40956788Y-26753129D01*
X32610118Y-26753129D02*
X43261034Y-26753129D01*
X40956788Y-26753129D02*
X41582225Y-28263241D01*
X35800501Y-24617151D02*
X36426110Y-23106954D01*
X40890237Y-23798339D02*
X41970522Y-24245878D01*
X37935447Y-22574550D02*
X39015818Y-22127011D01*
X34915826Y-26753129D02*
X34290131Y-25242932D01*
X40890237Y-29707747D02*
X41970522Y-29260208D01*
X37935533Y-21427629D02*
X37935533Y-32078544D01*
X37936307Y-23732477D02*
X39446418Y-23106954D01*
X40072113Y-28888764D02*
X39446418Y-30399133D01*
X33900544Y-24245878D02*
X34980829Y-23798339D01*
X34980829Y-29707747D02*
X35428368Y-30788118D01*
X25998829Y-55268247D02*
X26446368Y-56348618D01*
X24918544Y-49806378D02*
X25998829Y-49358839D01*
X31090113Y-54449264D02*
X30464418Y-55959633D01*
X28954307Y-49292977D02*
X30464418Y-48667454D01*
X28953533Y-46988129D02*
X28953533Y-57639044D01*
X31908237Y-55268247D02*
X32988522Y-54820708D01*
X25933826Y-52313629D02*
X25308131Y-50803432D01*
X28953447Y-48135050D02*
X30033818Y-47687511D01*
X31908237Y-49358839D02*
X32988522Y-49806378D01*
X26818501Y-50177651D02*
X27444110Y-48667454D01*
X31974788Y-52313629D02*
X32600225Y-53823741D01*
X23628118Y-52313629D02*
X34279034Y-52313629D01*
X32600225Y-50803260D02*
X31974788Y-52313629D01*
X30464418Y-55959633D02*
X28954307Y-55334110D01*
X33579566Y-53394000D02*
X33132113Y-52313629D01*
X24918544Y-54820708D02*
X25998829Y-55268247D01*
X27873248Y-47687511D02*
X28953447Y-48135050D01*
X25187842Y-48547852D02*
X32719224Y-56079235D01*
X25998829Y-49358839D02*
X26446368Y-48278641D01*
X25308131Y-53823741D02*
X25933826Y-52313629D01*
X31460698Y-56348618D02*
X31908237Y-55268247D01*
X28954307Y-55334110D02*
X27444110Y-55959461D01*
X27444110Y-55959461D02*
X26818415Y-54449436D01*
X32600225Y-53823741D02*
X31090113Y-54449264D01*
X31460698Y-48278641D02*
X31908237Y-49358839D01*
X31090113Y-50177651D02*
X32600225Y-50803260D01*
X27444110Y-48667454D02*
X28954307Y-49292977D01*
X26818415Y-54449436D02*
X25308131Y-53823741D01*
X32719224Y-48547852D02*
X25187842Y-56079235D01*
X33132113Y-52313629D02*
X33579566Y-51233345D01*
X30464418Y-48667454D02*
X31090113Y-50177651D01*
X24774954Y-52313629D02*
X24327500Y-51233345D01*
X28953447Y-56492209D02*
X30033818Y-56939576D01*
X27873248Y-56939576D02*
X28953447Y-56492209D01*
X25308131Y-50803432D02*
X26818501Y-50177651D01*
X24327500Y-53394000D02*
X24774954Y-52313629D01*
X18027500Y-40744000D02*
X18474954Y-39663629D01*
X19008131Y-38153432D02*
X20518501Y-37527651D01*
X21573248Y-44289576D02*
X22653447Y-43842209D01*
X22653447Y-43842209D02*
X23733818Y-44289576D01*
X18474954Y-39663629D02*
X18027500Y-38583345D01*
X24164418Y-36017454D02*
X24790113Y-37527651D01*
X26832113Y-39663629D02*
X27279566Y-38583345D01*
X26419224Y-35897852D02*
X18887842Y-43429235D01*
X20518415Y-41799436D02*
X19008131Y-41173741D01*
X21144110Y-36017454D02*
X22654307Y-36642977D01*
X24790113Y-37527651D02*
X26300225Y-38153260D01*
X25160698Y-35628641D02*
X25608237Y-36708839D01*
X26300225Y-41173741D02*
X24790113Y-41799264D01*
X21144110Y-43309461D02*
X20518415Y-41799436D01*
X22654307Y-42684110D02*
X21144110Y-43309461D01*
X25160698Y-43698618D02*
X25608237Y-42618247D01*
X19008131Y-41173741D02*
X19633826Y-39663629D01*
X19698829Y-36708839D02*
X20146368Y-35628641D01*
X18887842Y-35897852D02*
X26419224Y-43429235D01*
X21573248Y-35037511D02*
X22653447Y-35485050D01*
X18618544Y-42170708D02*
X19698829Y-42618247D01*
X27279566Y-40744000D02*
X26832113Y-39663629D01*
X24164418Y-43309633D02*
X22654307Y-42684110D01*
X26300225Y-38153260D02*
X25674788Y-39663629D01*
X17328118Y-39663629D02*
X27979034Y-39663629D01*
X25674788Y-39663629D02*
X26300225Y-41173741D01*
X20518501Y-37527651D02*
X21144110Y-36017454D01*
X25608237Y-36708839D02*
X26688522Y-37156378D01*
X22653447Y-35485050D02*
X23733818Y-35037511D01*
X19633826Y-39663629D02*
X19008131Y-38153432D01*
X25608237Y-42618247D02*
X26688522Y-42170708D01*
X22653533Y-34338129D02*
X22653533Y-44989044D01*
X22654307Y-36642977D02*
X24164418Y-36017454D01*
X24790113Y-41799264D02*
X24164418Y-43309633D01*
X18618544Y-37156378D02*
X19698829Y-36708839D01*
X19698829Y-42618247D02*
X20146368Y-43698618D01*
X34648829Y-68168247D02*
X35096368Y-69248618D01*
X33568544Y-62706378D02*
X34648829Y-62258839D01*
X39740113Y-67349264D02*
X39114418Y-68859633D01*
X37604307Y-62192977D02*
X39114418Y-61567454D01*
X37603533Y-59888129D02*
X37603533Y-70539044D01*
X40558237Y-68168247D02*
X41638522Y-67720708D01*
X34583826Y-65213629D02*
X33958131Y-63703432D01*
X37603447Y-61035050D02*
X38683818Y-60587511D01*
X40558237Y-62258839D02*
X41638522Y-62706378D01*
X35468501Y-63077651D02*
X36094110Y-61567454D01*
X40624788Y-65213629D02*
X41250225Y-66723741D01*
X32278118Y-65213629D02*
X42929034Y-65213629D01*
X41250225Y-63703260D02*
X40624788Y-65213629D01*
X39114418Y-68859633D02*
X37604307Y-68234110D01*
X42229566Y-66294000D02*
X41782113Y-65213629D01*
X33568544Y-67720708D02*
X34648829Y-68168247D01*
X36523248Y-60587511D02*
X37603447Y-61035050D01*
X33837842Y-61447852D02*
X41369224Y-68979235D01*
X34648829Y-62258839D02*
X35096368Y-61178641D01*
X33958131Y-66723741D02*
X34583826Y-65213629D01*
X40110698Y-69248618D02*
X40558237Y-68168247D01*
X37604307Y-68234110D02*
X36094110Y-68859461D01*
X36094110Y-68859461D02*
X35468415Y-67349436D01*
X41250225Y-66723741D02*
X39740113Y-67349264D01*
X40110698Y-61178641D02*
X40558237Y-62258839D01*
X39740113Y-63077651D02*
X41250225Y-63703260D01*
X36094110Y-61567454D02*
X37604307Y-62192977D01*
X35468415Y-67349436D02*
X33958131Y-66723741D01*
X41369224Y-61447852D02*
X33837842Y-68979235D01*
X41782113Y-65213629D02*
X42229566Y-64133345D01*
X39114418Y-61567454D02*
X39740113Y-63077651D01*
X33424954Y-65213629D02*
X32977500Y-64133345D01*
X37603447Y-69392209D02*
X38683818Y-69839576D01*
X36523248Y-69839576D02*
X37603447Y-69392209D01*
X33958131Y-63703432D02*
X35468501Y-63077651D01*
X32977500Y-66294000D02*
X33424954Y-65213629D01*
X43227500Y-40544000D02*
X43674954Y-39463629D01*
X44208131Y-37953432D02*
X45718501Y-37327651D01*
X46773248Y-44089576D02*
X47853447Y-43642209D01*
X47853447Y-43642209D02*
X48933818Y-44089576D01*
X43674954Y-39463629D02*
X43227500Y-38383345D01*
X49364418Y-35817454D02*
X49990113Y-37327651D01*
X52032113Y-39463629D02*
X52479566Y-38383345D01*
X51619224Y-35697852D02*
X44087842Y-43229235D01*
X45718415Y-41599436D02*
X44208131Y-40973741D01*
X46344110Y-35817454D02*
X47854307Y-36442977D01*
X49990113Y-37327651D02*
X51500225Y-37953260D01*
X50360698Y-35428641D02*
X50808237Y-36508839D01*
X51500225Y-40973741D02*
X49990113Y-41599264D01*
X46344110Y-43109461D02*
X45718415Y-41599436D01*
X47854307Y-42484110D02*
X46344110Y-43109461D01*
X50360698Y-43498618D02*
X50808237Y-42418247D01*
X44208131Y-40973741D02*
X44833826Y-39463629D01*
X44898829Y-36508839D02*
X45346368Y-35428641D01*
X44087842Y-35697852D02*
X51619224Y-43229235D01*
X46773248Y-34837511D02*
X47853447Y-35285050D01*
X43818544Y-41970708D02*
X44898829Y-42418247D01*
X52479566Y-40544000D02*
X52032113Y-39463629D01*
X49364418Y-43109633D02*
X47854307Y-42484110D01*
X51500225Y-37953260D02*
X50874788Y-39463629D01*
X42528118Y-39463629D02*
X53179034Y-39463629D01*
X50874788Y-39463629D02*
X51500225Y-40973741D01*
X45718501Y-37327651D02*
X46344110Y-35817454D01*
X50808237Y-36508839D02*
X51888522Y-36956378D01*
X47853447Y-35285050D02*
X48933818Y-34837511D01*
X44833826Y-39463629D02*
X44208131Y-37953432D01*
X50808237Y-42418247D02*
X51888522Y-41970708D01*
X47853533Y-34138129D02*
X47853533Y-44789044D01*
X47854307Y-36442977D02*
X49364418Y-35817454D01*
X49990113Y-41599264D02*
X49364418Y-43109633D01*
X43818544Y-36956378D02*
X44898829Y-36508839D01*
X44898829Y-42418247D02*
X45346368Y-43498618D01*
D12*
X61427500Y-55744000D02*
X60102903Y-54979252D01*
X60102903Y-58038294D02*
X60102903Y-59567840D01*
X62752197Y-54979252D02*
X61427500Y-55744000D01*
X62752197Y-59567840D02*
X62752197Y-58038294D01*
X60102903Y-56508698D02*
X58778307Y-57273496D01*
X62752197Y-56508698D02*
X62752197Y-54979252D01*
X58778307Y-57273496D02*
X60102903Y-58038294D01*
X60102903Y-59567840D02*
X61427500Y-58803042D01*
X64076793Y-57273496D02*
X62752197Y-56508698D01*
X61427500Y-54176704D02*
X61427500Y-60370388D01*
X64109443Y-55725150D02*
X58745557Y-58821992D01*
X58745557Y-55725150D02*
X64109443Y-58821992D01*
X60102903Y-54979252D02*
X60102903Y-56508698D01*
X61427500Y-58803042D02*
X62752197Y-59567840D01*
X62752197Y-58038294D02*
X64076793Y-57273496D01*
X43602197Y-71638294D02*
X44926793Y-70873496D01*
X42277500Y-72403042D02*
X43602197Y-73167840D01*
X40952903Y-68579252D02*
X40952903Y-70108698D01*
X39595557Y-69325150D02*
X44959443Y-72421992D01*
X44959443Y-69325150D02*
X39595557Y-72421992D01*
X42277500Y-67776704D02*
X42277500Y-73970388D01*
X44926793Y-70873496D02*
X43602197Y-70108698D01*
X40952903Y-73167840D02*
X42277500Y-72403042D01*
X39628307Y-70873496D02*
X40952903Y-71638294D01*
X43602197Y-70108698D02*
X43602197Y-68579252D01*
X40952903Y-70108698D02*
X39628307Y-70873496D01*
X43602197Y-73167840D02*
X43602197Y-71638294D01*
X43602197Y-68579252D02*
X42277500Y-69344000D01*
X40952903Y-71638294D02*
X40952903Y-73167840D01*
X42277500Y-69344000D02*
X40952903Y-68579252D01*
X34002197Y-75088294D02*
X35326793Y-74323496D01*
X32677500Y-75853042D02*
X34002197Y-76617840D01*
X31352903Y-72029252D02*
X31352903Y-73558698D01*
X29995557Y-72775150D02*
X35359443Y-75871992D01*
X35359443Y-72775150D02*
X29995557Y-75871992D01*
X32677500Y-71226704D02*
X32677500Y-77420388D01*
X35326793Y-74323496D02*
X34002197Y-73558698D01*
X31352903Y-76617840D02*
X32677500Y-75853042D01*
X30028307Y-74323496D02*
X31352903Y-75088294D01*
X34002197Y-73558698D02*
X34002197Y-72029252D01*
X31352903Y-73558698D02*
X30028307Y-74323496D01*
X34002197Y-76617840D02*
X34002197Y-75088294D01*
X34002197Y-72029252D02*
X32677500Y-72794000D01*
X31352903Y-75088294D02*
X31352903Y-76617840D01*
X32677500Y-72794000D02*
X31352903Y-72029252D01*
X12677500Y-52194000D02*
X11352903Y-51429252D01*
X11352903Y-54488294D02*
X11352903Y-56017840D01*
X14002197Y-51429252D02*
X12677500Y-52194000D01*
X14002197Y-56017840D02*
X14002197Y-54488294D01*
X11352903Y-52958698D02*
X10028307Y-53723496D01*
X14002197Y-52958698D02*
X14002197Y-51429252D01*
X10028307Y-53723496D02*
X11352903Y-54488294D01*
X11352903Y-56017840D02*
X12677500Y-55253042D01*
X15326793Y-53723496D02*
X14002197Y-52958698D01*
X12677500Y-50626704D02*
X12677500Y-56820388D01*
X15359443Y-52175150D02*
X9995557Y-55271992D01*
X9995557Y-52175150D02*
X15359443Y-55271992D01*
X11352903Y-51429252D02*
X11352903Y-52958698D01*
X12677500Y-55253042D02*
X14002197Y-56017840D01*
X14002197Y-54488294D02*
X15326793Y-53723496D01*
X7252197Y-49638294D02*
X8576793Y-48873496D01*
X5927500Y-50403042D02*
X7252197Y-51167840D01*
X4602903Y-46579252D02*
X4602903Y-48108698D01*
X3245557Y-47325150D02*
X8609443Y-50421992D01*
X8609443Y-47325150D02*
X3245557Y-50421992D01*
X5927500Y-45776704D02*
X5927500Y-51970388D01*
X8576793Y-48873496D02*
X7252197Y-48108698D01*
X4602903Y-51167840D02*
X5927500Y-50403042D01*
X3278307Y-48873496D02*
X4602903Y-49638294D01*
X7252197Y-48108698D02*
X7252197Y-46579252D01*
X4602903Y-48108698D02*
X3278307Y-48873496D01*
X7252197Y-51167840D02*
X7252197Y-49638294D01*
X7252197Y-46579252D02*
X5927500Y-47344000D01*
X4602903Y-49638294D02*
X4602903Y-51167840D01*
X5927500Y-47344000D02*
X4602903Y-46579252D01*
X37252197Y-55538294D02*
X38576793Y-54773496D01*
X35927500Y-56303042D02*
X37252197Y-57067840D01*
X34602903Y-52479252D02*
X34602903Y-54008698D01*
X33245557Y-53225150D02*
X38609443Y-56321992D01*
X38609443Y-53225150D02*
X33245557Y-56321992D01*
X35927500Y-51676704D02*
X35927500Y-57870388D01*
X38576793Y-54773496D02*
X37252197Y-54008698D01*
X34602903Y-57067840D02*
X35927500Y-56303042D01*
X33278307Y-54773496D02*
X34602903Y-55538294D01*
X37252197Y-54008698D02*
X37252197Y-52479252D01*
X34602903Y-54008698D02*
X33278307Y-54773496D01*
X37252197Y-57067840D02*
X37252197Y-55538294D01*
X37252197Y-52479252D02*
X35927500Y-53244000D01*
X34602903Y-55538294D02*
X34602903Y-57067840D01*
X35927500Y-53244000D02*
X34602903Y-52479252D01*
X45127500Y-49144000D02*
X43802903Y-48379252D01*
X43802903Y-51438294D02*
X43802903Y-52967840D01*
X46452197Y-48379252D02*
X45127500Y-49144000D01*
X46452197Y-52967840D02*
X46452197Y-51438294D01*
X43802903Y-49908698D02*
X42478307Y-50673496D01*
X46452197Y-49908698D02*
X46452197Y-48379252D01*
X42478307Y-50673496D02*
X43802903Y-51438294D01*
X43802903Y-52967840D02*
X45127500Y-52203042D01*
X47776793Y-50673496D02*
X46452197Y-49908698D01*
X45127500Y-47576704D02*
X45127500Y-53770388D01*
X47809443Y-49125150D02*
X42445557Y-52221992D01*
X42445557Y-49125150D02*
X47809443Y-52221992D01*
X43802903Y-48379252D02*
X43802903Y-49908698D01*
X45127500Y-52203042D02*
X46452197Y-52967840D01*
X46452197Y-51438294D02*
X47776793Y-50673496D01*
X67077500Y-47044000D02*
X65752903Y-46279252D01*
X65752903Y-49338294D02*
X65752903Y-50867840D01*
X68402197Y-46279252D02*
X67077500Y-47044000D01*
X68402197Y-50867840D02*
X68402197Y-49338294D01*
X65752903Y-47808698D02*
X64428307Y-48573496D01*
X68402197Y-47808698D02*
X68402197Y-46279252D01*
X64428307Y-48573496D02*
X65752903Y-49338294D01*
X65752903Y-50867840D02*
X67077500Y-50103042D01*
X69726793Y-48573496D02*
X68402197Y-47808698D01*
X67077500Y-45476704D02*
X67077500Y-51670388D01*
X69759443Y-47025150D02*
X64395557Y-50121992D01*
X64395557Y-47025150D02*
X69759443Y-50121992D01*
X65752903Y-46279252D02*
X65752903Y-47808698D01*
X67077500Y-50103042D02*
X68402197Y-50867840D01*
X68402197Y-49338294D02*
X69726793Y-48573496D01*
X53077500Y-43294000D02*
X51752903Y-42529252D01*
X51752903Y-45588294D02*
X51752903Y-47117840D01*
X54402197Y-42529252D02*
X53077500Y-43294000D01*
X54402197Y-47117840D02*
X54402197Y-45588294D01*
X51752903Y-44058698D02*
X50428307Y-44823496D01*
X54402197Y-44058698D02*
X54402197Y-42529252D01*
X50428307Y-44823496D02*
X51752903Y-45588294D01*
X51752903Y-47117840D02*
X53077500Y-46353042D01*
X55726793Y-44823496D02*
X54402197Y-44058698D01*
X53077500Y-41726704D02*
X53077500Y-47920388D01*
X55759443Y-43275150D02*
X50395557Y-46371992D01*
X50395557Y-43275150D02*
X55759443Y-46371992D01*
X51752903Y-42529252D02*
X51752903Y-44058698D01*
X53077500Y-46353042D02*
X54402197Y-47117840D01*
X54402197Y-45588294D02*
X55726793Y-44823496D01*
X39552197Y-38588294D02*
X40876793Y-37823496D01*
X38227500Y-39353042D02*
X39552197Y-40117840D01*
X36902903Y-35529252D02*
X36902903Y-37058698D01*
X35545557Y-36275150D02*
X40909443Y-39371992D01*
X40909443Y-36275150D02*
X35545557Y-39371992D01*
X38227500Y-34726704D02*
X38227500Y-40920388D01*
X40876793Y-37823496D02*
X39552197Y-37058698D01*
X36902903Y-40117840D02*
X38227500Y-39353042D01*
X35578307Y-37823496D02*
X36902903Y-38588294D01*
X39552197Y-37058698D02*
X39552197Y-35529252D01*
X36902903Y-37058698D02*
X35578307Y-37823496D01*
X39552197Y-40117840D02*
X39552197Y-38588294D01*
X39552197Y-35529252D02*
X38227500Y-36294000D01*
X36902903Y-38588294D02*
X36902903Y-40117840D01*
X38227500Y-36294000D02*
X36902903Y-35529252D01*
X21277500Y-33644000D02*
X19952903Y-32879252D01*
X19952903Y-35938294D02*
X19952903Y-37467840D01*
X22602197Y-32879252D02*
X21277500Y-33644000D01*
X22602197Y-37467840D02*
X22602197Y-35938294D01*
X19952903Y-34408698D02*
X18628307Y-35173496D01*
X22602197Y-34408698D02*
X22602197Y-32879252D01*
X18628307Y-35173496D02*
X19952903Y-35938294D01*
X19952903Y-37467840D02*
X21277500Y-36703042D01*
X23926793Y-35173496D02*
X22602197Y-34408698D01*
X21277500Y-32076704D02*
X21277500Y-38270388D01*
X23959443Y-33625150D02*
X18595557Y-36721992D01*
X18595557Y-33625150D02*
X23959443Y-36721992D01*
X19952903Y-32879252D02*
X19952903Y-34408698D01*
X21277500Y-36703042D02*
X22602197Y-37467840D01*
X22602197Y-35938294D02*
X23926793Y-35173496D01*
X31552197Y-37888294D02*
X32876793Y-37123496D01*
X30227500Y-38653042D02*
X31552197Y-39417840D01*
X28902903Y-34829252D02*
X28902903Y-36358698D01*
X27545557Y-35575150D02*
X32909443Y-38671992D01*
X32909443Y-35575150D02*
X27545557Y-38671992D01*
X30227500Y-34026704D02*
X30227500Y-40220388D01*
X32876793Y-37123496D02*
X31552197Y-36358698D01*
X28902903Y-39417840D02*
X30227500Y-38653042D01*
X27578307Y-37123496D02*
X28902903Y-37888294D01*
X31552197Y-36358698D02*
X31552197Y-34829252D01*
X28902903Y-36358698D02*
X27578307Y-37123496D01*
X31552197Y-39417840D02*
X31552197Y-37888294D01*
X31552197Y-34829252D02*
X30227500Y-35594000D01*
X28902903Y-37888294D02*
X28902903Y-39417840D01*
X30227500Y-35594000D02*
X28902903Y-34829252D01*
X61852197Y-37938294D02*
X63176793Y-37173496D01*
X60527500Y-38703042D02*
X61852197Y-39467840D01*
X59202903Y-34879252D02*
X59202903Y-36408698D01*
X57845557Y-35625150D02*
X63209443Y-38721992D01*
X63209443Y-35625150D02*
X57845557Y-38721992D01*
X60527500Y-34076704D02*
X60527500Y-40270388D01*
X63176793Y-37173496D02*
X61852197Y-36408698D01*
X59202903Y-39467840D02*
X60527500Y-38703042D01*
X57878307Y-37173496D02*
X59202903Y-37938294D01*
X61852197Y-36408698D02*
X61852197Y-34879252D01*
X59202903Y-36408698D02*
X57878307Y-37173496D01*
X61852197Y-39467840D02*
X61852197Y-37938294D01*
X61852197Y-34879252D02*
X60527500Y-35644000D01*
X59202903Y-37938294D02*
X59202903Y-39467840D01*
X60527500Y-35644000D02*
X59202903Y-34879252D01*
X58502197Y-25488294D02*
X59826793Y-24723496D01*
X57177500Y-26253042D02*
X58502197Y-27017840D01*
X55852903Y-22429252D02*
X55852903Y-23958698D01*
X54495557Y-23175150D02*
X59859443Y-26271992D01*
X59859443Y-23175150D02*
X54495557Y-26271992D01*
X57177500Y-21626704D02*
X57177500Y-27820388D01*
X59826793Y-24723496D02*
X58502197Y-23958698D01*
X55852903Y-27017840D02*
X57177500Y-26253042D01*
X54528307Y-24723496D02*
X55852903Y-25488294D01*
X58502197Y-23958698D02*
X58502197Y-22429252D01*
X55852903Y-23958698D02*
X54528307Y-24723496D01*
X58502197Y-27017840D02*
X58502197Y-25488294D01*
X58502197Y-22429252D02*
X57177500Y-23194000D01*
X55852903Y-25488294D02*
X55852903Y-27017840D01*
X57177500Y-23194000D02*
X55852903Y-22429252D01*
X23777500Y-17174000D02*
X22452903Y-16409252D01*
X22452903Y-19468294D02*
X22452903Y-20997840D01*
X25102197Y-16409252D02*
X23777500Y-17174000D01*
X25102197Y-20997840D02*
X25102197Y-19468294D01*
X22452903Y-17938698D02*
X21128307Y-18703496D01*
X25102197Y-17938698D02*
X25102197Y-16409252D01*
X21128307Y-18703496D02*
X22452903Y-19468294D01*
X22452903Y-20997840D02*
X23777500Y-20233042D01*
X26426793Y-18703496D02*
X25102197Y-17938698D01*
X23777500Y-15606704D02*
X23777500Y-21800388D01*
X26459443Y-17155150D02*
X21095557Y-20251992D01*
X21095557Y-17155150D02*
X26459443Y-20251992D01*
X22452903Y-16409252D02*
X22452903Y-17938698D01*
X23777500Y-20233042D02*
X25102197Y-20997840D01*
X25102197Y-19468294D02*
X26426793Y-18703496D01*
D14*
X42077500Y-18694000D03*
D15*
X29377500Y-18694000D03*
M02*
