G04 #@! TF.GenerationSoftware,KiCad,Pcbnew,5.1.4+dfsg1-1*
G04 #@! TF.CreationDate,2019-11-28T07:22:53-08:00*
G04 #@! TF.ProjectId,xmas-led-002,786d6173-2d6c-4656-942d-3030322e6b69,v1_00*
G04 #@! TF.SameCoordinates,PX6cd5f04PY3385f10*
G04 #@! TF.FileFunction,Soldermask,Bot*
G04 #@! TF.FilePolarity,Negative*
%FSLAX46Y46*%
G04 Gerber Fmt 4.6, Leading zero omitted, Abs format (unit mm)*
G04 Created by KiCad (PCBNEW 5.1.4+dfsg1-1) date 2019-11-28 07:22:53*
%MOMM*%
%LPD*%
G04 APERTURE LIST*
%ADD10C,0.010000*%
%ADD11C,1.000000*%
%ADD12R,2.100000X1.600000*%
%ADD13R,1.400000X0.900000*%
%ADD14R,1.400000X3.550000*%
%ADD15C,1.300000*%
%ADD16R,2.900000X1.650000*%
%ADD17C,2.400000*%
%ADD18R,2.400000X2.400000*%
%ADD19R,1.600000X2.700000*%
G04 APERTURE END LIST*
D10*
G36*
X35078458Y-9096785D02*
G01*
X34911974Y-9102584D01*
X34780300Y-9121461D01*
X34677256Y-9155919D01*
X34596662Y-9208465D01*
X34532335Y-9281604D01*
X34502311Y-9330319D01*
X34475835Y-9385772D01*
X34458652Y-9445054D01*
X34448184Y-9520885D01*
X34441850Y-9625987D01*
X34441723Y-9629082D01*
X34442348Y-9784074D01*
X34459849Y-9907190D01*
X34496474Y-10006282D01*
X34554470Y-10089200D01*
X34581447Y-10117018D01*
X34650190Y-10177937D01*
X34714758Y-10220726D01*
X34785461Y-10248877D01*
X34872613Y-10265883D01*
X34986524Y-10275234D01*
X35057291Y-10278150D01*
X35306000Y-10286459D01*
X35306000Y-10118546D01*
X35115500Y-10118546D01*
X34985259Y-10106736D01*
X34891411Y-10091341D01*
X34819592Y-10066038D01*
X34801359Y-10054864D01*
X34740886Y-10004517D01*
X34700382Y-9953836D01*
X34676024Y-9892694D01*
X34663988Y-9810964D01*
X34660451Y-9698520D01*
X34660416Y-9681558D01*
X34666607Y-9541093D01*
X34687865Y-9436284D01*
X34728227Y-9361921D01*
X34791723Y-9312791D01*
X34882388Y-9283681D01*
X34977922Y-9271247D01*
X35115500Y-9260204D01*
X35115500Y-10118546D01*
X35306000Y-10118546D01*
X35306000Y-9096667D01*
X35078458Y-9096785D01*
X35078458Y-9096785D01*
G37*
X35078458Y-9096785D02*
X34911974Y-9102584D01*
X34780300Y-9121461D01*
X34677256Y-9155919D01*
X34596662Y-9208465D01*
X34532335Y-9281604D01*
X34502311Y-9330319D01*
X34475835Y-9385772D01*
X34458652Y-9445054D01*
X34448184Y-9520885D01*
X34441850Y-9625987D01*
X34441723Y-9629082D01*
X34442348Y-9784074D01*
X34459849Y-9907190D01*
X34496474Y-10006282D01*
X34554470Y-10089200D01*
X34581447Y-10117018D01*
X34650190Y-10177937D01*
X34714758Y-10220726D01*
X34785461Y-10248877D01*
X34872613Y-10265883D01*
X34986524Y-10275234D01*
X35057291Y-10278150D01*
X35306000Y-10286459D01*
X35306000Y-10118546D01*
X35115500Y-10118546D01*
X34985259Y-10106736D01*
X34891411Y-10091341D01*
X34819592Y-10066038D01*
X34801359Y-10054864D01*
X34740886Y-10004517D01*
X34700382Y-9953836D01*
X34676024Y-9892694D01*
X34663988Y-9810964D01*
X34660451Y-9698520D01*
X34660416Y-9681558D01*
X34666607Y-9541093D01*
X34687865Y-9436284D01*
X34728227Y-9361921D01*
X34791723Y-9312791D01*
X34882388Y-9283681D01*
X34977922Y-9271247D01*
X35115500Y-9260204D01*
X35115500Y-10118546D01*
X35306000Y-10118546D01*
X35306000Y-9096667D01*
X35078458Y-9096785D01*
G36*
X35722795Y-9343511D02*
G01*
X35570583Y-9361250D01*
X35557843Y-9558362D01*
X35638296Y-9539686D01*
X35726054Y-9525775D01*
X35818804Y-9521248D01*
X35901617Y-9526004D01*
X35959561Y-9539939D01*
X35963558Y-9541911D01*
X35997810Y-9579750D01*
X36000953Y-9628315D01*
X35978041Y-9663660D01*
X35945622Y-9680705D01*
X35885342Y-9704908D01*
X35809875Y-9731206D01*
X35805135Y-9732742D01*
X35698407Y-9775667D01*
X35610240Y-9827353D01*
X35582885Y-9849447D01*
X35535173Y-9899033D01*
X35512999Y-9944936D01*
X35507130Y-10007619D01*
X35507083Y-10017417D01*
X35511433Y-10082772D01*
X35530540Y-10129218D01*
X35573485Y-10176644D01*
X35584460Y-10186829D01*
X35649347Y-10235236D01*
X35720084Y-10272300D01*
X35743210Y-10280335D01*
X35825006Y-10294034D01*
X35931201Y-10299544D01*
X36044627Y-10296688D01*
X36148115Y-10285293D01*
X36152666Y-10284505D01*
X36197157Y-10274045D01*
X36219937Y-10254898D01*
X36229680Y-10214550D01*
X36233314Y-10168122D01*
X36235596Y-10107218D01*
X36230082Y-10079609D01*
X36213577Y-10076510D01*
X36201564Y-10080832D01*
X36155410Y-10091675D01*
X36081022Y-10100818D01*
X35992492Y-10107445D01*
X35903910Y-10110740D01*
X35829368Y-10109887D01*
X35785960Y-10104906D01*
X35735085Y-10077478D01*
X35718253Y-10035603D01*
X35739044Y-9989670D01*
X35744384Y-9984239D01*
X35782938Y-9959929D01*
X35848346Y-9930186D01*
X35926776Y-9901266D01*
X35930416Y-9900076D01*
X36057962Y-9848063D01*
X36146357Y-9786519D01*
X36198206Y-9712884D01*
X36216114Y-9624593D01*
X36216166Y-9618991D01*
X36197554Y-9519340D01*
X36143923Y-9439512D01*
X36058584Y-9381354D01*
X35944845Y-9346713D01*
X35806016Y-9337439D01*
X35722795Y-9343511D01*
X35722795Y-9343511D01*
G37*
X35722795Y-9343511D02*
X35570583Y-9361250D01*
X35557843Y-9558362D01*
X35638296Y-9539686D01*
X35726054Y-9525775D01*
X35818804Y-9521248D01*
X35901617Y-9526004D01*
X35959561Y-9539939D01*
X35963558Y-9541911D01*
X35997810Y-9579750D01*
X36000953Y-9628315D01*
X35978041Y-9663660D01*
X35945622Y-9680705D01*
X35885342Y-9704908D01*
X35809875Y-9731206D01*
X35805135Y-9732742D01*
X35698407Y-9775667D01*
X35610240Y-9827353D01*
X35582885Y-9849447D01*
X35535173Y-9899033D01*
X35512999Y-9944936D01*
X35507130Y-10007619D01*
X35507083Y-10017417D01*
X35511433Y-10082772D01*
X35530540Y-10129218D01*
X35573485Y-10176644D01*
X35584460Y-10186829D01*
X35649347Y-10235236D01*
X35720084Y-10272300D01*
X35743210Y-10280335D01*
X35825006Y-10294034D01*
X35931201Y-10299544D01*
X36044627Y-10296688D01*
X36148115Y-10285293D01*
X36152666Y-10284505D01*
X36197157Y-10274045D01*
X36219937Y-10254898D01*
X36229680Y-10214550D01*
X36233314Y-10168122D01*
X36235596Y-10107218D01*
X36230082Y-10079609D01*
X36213577Y-10076510D01*
X36201564Y-10080832D01*
X36155410Y-10091675D01*
X36081022Y-10100818D01*
X35992492Y-10107445D01*
X35903910Y-10110740D01*
X35829368Y-10109887D01*
X35785960Y-10104906D01*
X35735085Y-10077478D01*
X35718253Y-10035603D01*
X35739044Y-9989670D01*
X35744384Y-9984239D01*
X35782938Y-9959929D01*
X35848346Y-9930186D01*
X35926776Y-9901266D01*
X35930416Y-9900076D01*
X36057962Y-9848063D01*
X36146357Y-9786519D01*
X36198206Y-9712884D01*
X36216114Y-9624593D01*
X36216166Y-9618991D01*
X36197554Y-9519340D01*
X36143923Y-9439512D01*
X36058584Y-9381354D01*
X35944845Y-9346713D01*
X35806016Y-9337439D01*
X35722795Y-9343511D01*
G36*
X36587370Y-9088647D02*
G01*
X36544250Y-9100128D01*
X36495006Y-9118698D01*
X36469104Y-9140676D01*
X36457891Y-9179415D01*
X36453146Y-9240677D01*
X36446709Y-9352938D01*
X36516646Y-9315519D01*
X36595790Y-9289051D01*
X36708202Y-9277852D01*
X36738413Y-9277341D01*
X36850617Y-9284225D01*
X36932981Y-9310085D01*
X36995912Y-9360779D01*
X37049820Y-9442165D01*
X37057541Y-9456932D01*
X37093190Y-9559338D01*
X37106848Y-9674965D01*
X37100046Y-9793261D01*
X37074311Y-9903679D01*
X37031172Y-9995667D01*
X36972158Y-10058677D01*
X36970163Y-10060006D01*
X36895267Y-10092030D01*
X36802270Y-10109324D01*
X36713927Y-10108243D01*
X36693695Y-10104295D01*
X36666046Y-10094976D01*
X36649871Y-10077803D01*
X36642101Y-10043047D01*
X36639671Y-9980977D01*
X36639500Y-9932347D01*
X36639500Y-9774000D01*
X36872333Y-9774000D01*
X36872333Y-9604667D01*
X36449000Y-9604667D01*
X36449000Y-10234088D01*
X36572097Y-10268627D01*
X36691613Y-10292523D01*
X36813462Y-10300528D01*
X36920725Y-10291995D01*
X36957137Y-10283390D01*
X37089277Y-10224432D01*
X37191188Y-10136812D01*
X37263253Y-10019914D01*
X37305854Y-9873122D01*
X37319386Y-9699917D01*
X37305674Y-9526588D01*
X37264048Y-9383183D01*
X37192936Y-9266485D01*
X37090763Y-9173277D01*
X37048713Y-9146391D01*
X36951486Y-9106825D01*
X36831063Y-9082992D01*
X36704130Y-9076423D01*
X36587370Y-9088647D01*
X36587370Y-9088647D01*
G37*
X36587370Y-9088647D02*
X36544250Y-9100128D01*
X36495006Y-9118698D01*
X36469104Y-9140676D01*
X36457891Y-9179415D01*
X36453146Y-9240677D01*
X36446709Y-9352938D01*
X36516646Y-9315519D01*
X36595790Y-9289051D01*
X36708202Y-9277852D01*
X36738413Y-9277341D01*
X36850617Y-9284225D01*
X36932981Y-9310085D01*
X36995912Y-9360779D01*
X37049820Y-9442165D01*
X37057541Y-9456932D01*
X37093190Y-9559338D01*
X37106848Y-9674965D01*
X37100046Y-9793261D01*
X37074311Y-9903679D01*
X37031172Y-9995667D01*
X36972158Y-10058677D01*
X36970163Y-10060006D01*
X36895267Y-10092030D01*
X36802270Y-10109324D01*
X36713927Y-10108243D01*
X36693695Y-10104295D01*
X36666046Y-10094976D01*
X36649871Y-10077803D01*
X36642101Y-10043047D01*
X36639671Y-9980977D01*
X36639500Y-9932347D01*
X36639500Y-9774000D01*
X36872333Y-9774000D01*
X36872333Y-9604667D01*
X36449000Y-9604667D01*
X36449000Y-10234088D01*
X36572097Y-10268627D01*
X36691613Y-10292523D01*
X36813462Y-10300528D01*
X36920725Y-10291995D01*
X36957137Y-10283390D01*
X37089277Y-10224432D01*
X37191188Y-10136812D01*
X37263253Y-10019914D01*
X37305854Y-9873122D01*
X37319386Y-9699917D01*
X37305674Y-9526588D01*
X37264048Y-9383183D01*
X37192936Y-9266485D01*
X37090763Y-9173277D01*
X37048713Y-9146391D01*
X36951486Y-9106825D01*
X36831063Y-9082992D01*
X36704130Y-9076423D01*
X36587370Y-9088647D01*
D11*
X9996738Y-30974000D02*
G75*
G03X9996738Y-30974000I-100000J0D01*
G01*
X20977500Y-19993238D02*
G75*
G03X20977500Y-19993238I-100000J0D01*
G01*
X35977500Y-15974000D02*
G75*
G03X35977500Y-15974000I-100000J0D01*
G01*
X50977500Y-19993238D02*
G75*
G03X50977500Y-19993238I-100000J0D01*
G01*
X61958262Y-30974000D02*
G75*
G03X61958262Y-30974000I-100000J0D01*
G01*
X65977500Y-45974000D02*
G75*
G03X65977500Y-45974000I-100000J0D01*
G01*
X61958262Y-60974000D02*
G75*
G03X61958262Y-60974000I-100000J0D01*
G01*
X50977500Y-71954762D02*
G75*
G03X50977500Y-71954762I-100000J0D01*
G01*
X35977500Y-75974000D02*
G75*
G03X35977500Y-75974000I-100000J0D01*
G01*
X20977500Y-71954762D02*
G75*
G03X20977500Y-71954762I-100000J0D01*
G01*
X9996738Y-60974000D02*
G75*
G03X9996738Y-60974000I-100000J0D01*
G01*
X5977500Y-45974000D02*
G75*
G03X5977500Y-45974000I-100000J0D01*
G01*
X25370898Y-35367398D02*
G75*
G03X25370898Y-35367398I-100000J0D01*
G01*
X35977500Y-30974000D02*
G75*
G03X35977500Y-30974000I-100000J0D01*
G01*
X46584102Y-35367398D02*
G75*
G03X46584102Y-35367398I-100000J0D01*
G01*
X50977500Y-45974000D02*
G75*
G03X50977500Y-45974000I-100000J0D01*
G01*
X46584102Y-56580602D02*
G75*
G03X46584102Y-56580602I-100000J0D01*
G01*
X35977500Y-60974000D02*
G75*
G03X35977500Y-60974000I-100000J0D01*
G01*
X25370898Y-56580602D02*
G75*
G03X25370898Y-56580602I-100000J0D01*
G01*
X20977500Y-45974000D02*
G75*
G03X20977500Y-45974000I-100000J0D01*
G01*
X35977500Y-45974000D02*
G75*
G03X35977500Y-45974000I-100000J0D01*
G01*
D12*
X30652000Y-24877500D03*
X30652000Y-21477500D03*
D13*
X28702000Y-23577500D03*
X28702000Y-22777500D03*
D14*
X56134000Y-62024500D03*
X56134000Y-56974500D03*
X53594000Y-62024500D03*
X53594000Y-56974500D03*
D15*
X57677500Y-42354000D03*
X57677500Y-35554000D03*
D16*
X54927500Y-41454000D03*
X54927500Y-38954000D03*
X54927500Y-36454000D03*
D17*
X42077500Y-18694000D03*
D18*
X29377500Y-18694000D03*
D19*
X8496738Y-30974000D03*
X11296738Y-30974000D03*
X19477500Y-19993238D03*
X22277500Y-19993238D03*
X34477500Y-15974000D03*
X37277500Y-15974000D03*
X49477500Y-19993238D03*
X52277500Y-19993238D03*
X60458262Y-30974000D03*
X63258262Y-30974000D03*
X64477500Y-45974000D03*
X67277500Y-45974000D03*
X60458262Y-60974000D03*
X63258262Y-60974000D03*
X49477500Y-71954762D03*
X52277500Y-71954762D03*
X34477500Y-75974000D03*
X37277500Y-75974000D03*
X19477500Y-71954762D03*
X22277500Y-71954762D03*
X8496738Y-60974000D03*
X11296738Y-60974000D03*
X4477500Y-45974000D03*
X7277500Y-45974000D03*
X23870898Y-35367398D03*
X26670898Y-35367398D03*
X34477500Y-30974000D03*
X37277500Y-30974000D03*
X45084102Y-35367398D03*
X47884102Y-35367398D03*
X49477500Y-45974000D03*
X52277500Y-45974000D03*
X45084102Y-56580602D03*
X47884102Y-56580602D03*
X34477500Y-60974000D03*
X37277500Y-60974000D03*
X23870898Y-56580602D03*
X26670898Y-56580602D03*
X19477500Y-45974000D03*
X22277500Y-45974000D03*
X34477500Y-45974000D03*
X37277500Y-45974000D03*
M02*
